<mxfile host="app.diagrams.net" agent="Mozilla/5.0 (Windows NT 10.0; Win64; x64) AppleWebKit/537.36 (KHTML, like Gecko) Chrome/128.0.0.0 Safari/537.36" version="24.8.3" pages="2">
  <diagram name="Page-1" id="P248FYWzakACENcYzD32">
    <mxGraphModel dx="2575" dy="1120" grid="1" gridSize="10" guides="1" tooltips="1" connect="1" arrows="1" fold="1" page="1" pageScale="1" pageWidth="1200" pageHeight="1600" math="0" shadow="0">
      <root>
        <mxCell id="0" />
        <mxCell id="1" parent="0" />
        <mxCell id="MiD2MkpI0hm2RFPDv_2f-2" value="" style="group;strokeWidth=2;" parent="1" vertex="1" connectable="0">
          <mxGeometry x="651.4403061404714" y="80" width="175.55978570167005" height="84.35185185185185" as="geometry" />
        </mxCell>
        <mxCell id="yPtDzLY2cuwBXVtl93wE-1" value="" style="ellipse;whiteSpace=wrap;html=1;strokeWidth=2;" parent="MiD2MkpI0hm2RFPDv_2f-2" vertex="1">
          <mxGeometry width="175.55978570167005" height="84.35185185185185" as="geometry" />
        </mxCell>
        <mxCell id="MiD2MkpI0hm2RFPDv_2f-1" value="&lt;font style=&quot;font-size: 24px;&quot;&gt;START&lt;/font&gt;" style="text;html=1;align=center;verticalAlign=middle;whiteSpace=wrap;rounded=0;strokeWidth=2;" parent="MiD2MkpI0hm2RFPDv_2f-2" vertex="1">
          <mxGeometry x="66.64106151124618" y="32.44301994301995" width="42.99423323306205" height="19.46581196581197" as="geometry" />
        </mxCell>
        <mxCell id="MiD2MkpI0hm2RFPDv_2f-5" value="" style="endArrow=classic;html=1;rounded=0;exitX=0.5;exitY=1;exitDx=0;exitDy=0;entryX=0.5;entryY=0;entryDx=0;entryDy=0;strokeWidth=2;" parent="1" source="yPtDzLY2cuwBXVtl93wE-1" target="MiD2MkpI0hm2RFPDv_2f-7" edge="1">
          <mxGeometry width="50" height="50" relative="1" as="geometry">
            <mxPoint x="738.8601989913063" y="302.35185185185185" as="sourcePoint" />
            <mxPoint x="738.8601989913063" y="352.962962962963" as="targetPoint" />
          </mxGeometry>
        </mxCell>
        <mxCell id="MiD2MkpI0hm2RFPDv_2f-33" value="" style="edgeStyle=orthogonalEdgeStyle;rounded=0;orthogonalLoop=1;jettySize=auto;html=1;strokeWidth=2;" parent="1" source="MiD2MkpI0hm2RFPDv_2f-4" target="MiD2MkpI0hm2RFPDv_2f-32" edge="1">
          <mxGeometry relative="1" as="geometry" />
        </mxCell>
        <mxCell id="MiD2MkpI0hm2RFPDv_2f-4" value="&lt;font style=&quot;font-size: 18px;&quot;&gt;LOGIN&lt;/font&gt;" style="rounded=0;whiteSpace=wrap;html=1;strokeWidth=2;" parent="1" vertex="1">
          <mxGeometry x="668.1597652923053" y="712.4474074074074" width="142.11982652039958" height="84.35185185185185" as="geometry" />
        </mxCell>
        <mxCell id="MiD2MkpI0hm2RFPDv_2f-8" style="edgeStyle=orthogonalEdgeStyle;rounded=0;orthogonalLoop=1;jettySize=auto;html=1;exitX=0.5;exitY=1;exitDx=0;exitDy=0;entryX=0.5;entryY=0;entryDx=0;entryDy=0;strokeWidth=2;" parent="1" source="MiD2MkpI0hm2RFPDv_2f-7" target="MiD2MkpI0hm2RFPDv_2f-4" edge="1">
          <mxGeometry relative="1" as="geometry" />
        </mxCell>
        <mxCell id="MiD2MkpI0hm2RFPDv_2f-20" style="edgeStyle=orthogonalEdgeStyle;rounded=0;orthogonalLoop=1;jettySize=auto;html=1;exitX=0;exitY=0.5;exitDx=0;exitDy=0;strokeWidth=2;" parent="1" source="MiD2MkpI0hm2RFPDv_2f-7" target="MiD2MkpI0hm2RFPDv_2f-19" edge="1">
          <mxGeometry relative="1" as="geometry" />
        </mxCell>
        <mxCell id="MiD2MkpI0hm2RFPDv_2f-7" value="&lt;font style=&quot;font-size: 18px;&quot;&gt;HAS 5&lt;/font&gt;&lt;div&gt;&lt;font style=&quot;font-size: 18px;&quot;&gt;ATTEMPTS&lt;/font&gt;&lt;/div&gt;" style="rhombus;whiteSpace=wrap;html=1;strokeWidth=2;" parent="1" vertex="1">
          <mxGeometry x="666.0697678434759" y="510.002962962963" width="146.29982141805834" height="151.83333333333337" as="geometry" />
        </mxCell>
        <mxCell id="MiD2MkpI0hm2RFPDv_2f-11" style="edgeStyle=orthogonalEdgeStyle;rounded=0;orthogonalLoop=1;jettySize=auto;html=1;exitX=1;exitY=0.5;exitDx=0;exitDy=0;entryX=1;entryY=0.5;entryDx=0;entryDy=0;strokeWidth=2;" parent="1" source="MiD2MkpI0hm2RFPDv_2f-9" target="MiD2MkpI0hm2RFPDv_2f-7" edge="1">
          <mxGeometry relative="1" as="geometry">
            <Array as="points">
              <mxPoint x="902" y="1192.04" />
              <mxPoint x="902" y="586.04" />
            </Array>
          </mxGeometry>
        </mxCell>
        <mxCell id="MiD2MkpI0hm2RFPDv_2f-13" style="edgeStyle=orthogonalEdgeStyle;rounded=0;orthogonalLoop=1;jettySize=auto;html=1;exitX=0.5;exitY=1;exitDx=0;exitDy=0;entryX=0.5;entryY=0;entryDx=0;entryDy=0;strokeWidth=2;" parent="1" source="MiD2MkpI0hm2RFPDv_2f-9" target="MiD2MkpI0hm2RFPDv_2f-12" edge="1">
          <mxGeometry relative="1" as="geometry" />
        </mxCell>
        <mxCell id="MiD2MkpI0hm2RFPDv_2f-9" value="&lt;font style=&quot;font-size: 14px;&quot;&gt;AUTHORIZED&lt;/font&gt;" style="rhombus;whiteSpace=wrap;html=1;strokeWidth=2;" parent="1" vertex="1">
          <mxGeometry x="665.4397678434759" y="1116.035555555556" width="146.29982141805834" height="151.83333333333337" as="geometry" />
        </mxCell>
        <mxCell id="MiD2MkpI0hm2RFPDv_2f-28" value="" style="edgeStyle=orthogonalEdgeStyle;rounded=0;orthogonalLoop=1;jettySize=auto;html=1;strokeWidth=2;" parent="1" source="BFEsGPovhOtkj3C0qsOE-10" edge="1">
          <mxGeometry relative="1" as="geometry">
            <mxPoint x="739.5901989913068" y="1480.5885185185186" as="targetPoint" />
          </mxGeometry>
        </mxCell>
        <mxCell id="MiD2MkpI0hm2RFPDv_2f-12" value="&lt;font style=&quot;font-size: 18px;&quot;&gt;GRANT ACCESS&lt;/font&gt;" style="rounded=0;whiteSpace=wrap;html=1;strokeWidth=2;" parent="1" vertex="1">
          <mxGeometry x="667.4377647820712" y="1330.5855555555559" width="142.11982652039958" height="84.35185185185185" as="geometry" />
        </mxCell>
        <mxCell id="MiD2MkpI0hm2RFPDv_2f-14" value="&lt;font style=&quot;font-size: 18px;&quot;&gt;YES&amp;nbsp;&lt;/font&gt;" style="text;html=1;align=center;verticalAlign=middle;resizable=0;points=[];autosize=1;strokeColor=none;fillColor=none;strokeWidth=2;" parent="1" vertex="1">
          <mxGeometry x="737.220188786624" y="1276.0368518518521" width="60" height="40" as="geometry" />
        </mxCell>
        <mxCell id="MiD2MkpI0hm2RFPDv_2f-15" value="&lt;font style=&quot;font-size: 18px;&quot;&gt;NO&lt;/font&gt;" style="text;html=1;align=center;verticalAlign=middle;resizable=0;points=[];autosize=1;strokeColor=none;fillColor=none;strokeWidth=2;" parent="1" vertex="1">
          <mxGeometry x="829.0101020468239" y="1150.5862962962963" width="50" height="40" as="geometry" />
        </mxCell>
        <mxCell id="MiD2MkpI0hm2RFPDv_2f-17" value="&lt;font style=&quot;font-size: 18px;&quot;&gt;YES&amp;nbsp;&lt;/font&gt;" style="text;html=1;align=center;verticalAlign=middle;resizable=0;points=[];autosize=1;strokeColor=none;fillColor=none;strokeWidth=2;" parent="1" vertex="1">
          <mxGeometry x="617.9998265203996" y="535.3085185185184" width="60" height="40" as="geometry" />
        </mxCell>
        <mxCell id="MiD2MkpI0hm2RFPDv_2f-18" value="&lt;font style=&quot;font-size: 18px;&quot;&gt;NO&lt;/font&gt;" style="text;html=1;align=center;verticalAlign=middle;resizable=0;points=[];autosize=1;strokeColor=none;fillColor=none;strokeWidth=2;" parent="1" vertex="1">
          <mxGeometry x="747.220188786624" y="661.8362962962964" width="50" height="40" as="geometry" />
        </mxCell>
        <mxCell id="MiD2MkpI0hm2RFPDv_2f-23" value="" style="edgeStyle=orthogonalEdgeStyle;rounded=0;orthogonalLoop=1;jettySize=auto;html=1;strokeWidth=2;" parent="1" source="MiD2MkpI0hm2RFPDv_2f-19" target="MiD2MkpI0hm2RFPDv_2f-22" edge="1">
          <mxGeometry relative="1" as="geometry" />
        </mxCell>
        <mxCell id="MiD2MkpI0hm2RFPDv_2f-19" value="&lt;font style=&quot;font-size: 18px;&quot;&gt;LOCKED&lt;/font&gt;&lt;div&gt;&lt;span style=&quot;font-size: 18px; background-color: initial;&quot;&gt;ACCOUNT&lt;/span&gt;&lt;div&gt;&lt;div&gt;&lt;font style=&quot;font-size: 18px;&quot;&gt;IN 1 HOUR&lt;/font&gt;&lt;/div&gt;&lt;/div&gt;&lt;/div&gt;" style="rounded=0;whiteSpace=wrap;html=1;strokeWidth=2;" parent="1" vertex="1">
          <mxGeometry x="298" y="712.4474074074074" width="142.11982652039958" height="84.35185185185185" as="geometry" />
        </mxCell>
        <mxCell id="MiD2MkpI0hm2RFPDv_2f-22" value="&lt;font style=&quot;font-size: 18px;&quot;&gt;ALERT USER&amp;nbsp;&lt;/font&gt;" style="rounded=0;whiteSpace=wrap;html=1;strokeWidth=2;" parent="1" vertex="1">
          <mxGeometry x="298.4765194183331" y="889.5862962962962" width="142.11982652039958" height="84.35185185185185" as="geometry" />
        </mxCell>
        <mxCell id="MiD2MkpI0hm2RFPDv_2f-38" value="" style="edgeStyle=orthogonalEdgeStyle;rounded=0;orthogonalLoop=1;jettySize=auto;html=1;strokeWidth=2;" parent="1" source="MiD2MkpI0hm2RFPDv_2f-32" target="MiD2MkpI0hm2RFPDv_2f-37" edge="1">
          <mxGeometry relative="1" as="geometry" />
        </mxCell>
        <mxCell id="MiD2MkpI0hm2RFPDv_2f-32" value="&lt;font style=&quot;font-size: 14px;&quot;&gt;Student ID&amp;nbsp;&lt;/font&gt;&lt;div&gt;&lt;font size=&quot;3&quot;&gt;and&lt;/font&gt;&lt;/div&gt;&lt;div&gt;&lt;font size=&quot;3&quot;&gt;&amp;nbsp;PASSWORD&lt;/font&gt;&lt;/div&gt;" style="shape=parallelogram;html=1;strokeWidth=2;perimeter=parallelogramPerimeter;whiteSpace=wrap;rounded=1;arcSize=12;size=0.23;" parent="1" vertex="1">
          <mxGeometry x="638.86" y="846.04" width="200" height="80" as="geometry" />
        </mxCell>
        <mxCell id="MiD2MkpI0hm2RFPDv_2f-39" value="" style="edgeStyle=orthogonalEdgeStyle;rounded=0;orthogonalLoop=1;jettySize=auto;html=1;strokeWidth=2;" parent="1" source="MiD2MkpI0hm2RFPDv_2f-35" target="MiD2MkpI0hm2RFPDv_2f-37" edge="1">
          <mxGeometry relative="1" as="geometry" />
        </mxCell>
        <mxCell id="MiD2MkpI0hm2RFPDv_2f-35" value="&lt;b&gt;STUDENT DB&lt;/b&gt;" style="strokeWidth=2;html=1;shape=mxgraph.flowchart.database;whiteSpace=wrap;" parent="1" vertex="1">
          <mxGeometry x="508" y="957.7" width="100" height="133.59" as="geometry" />
        </mxCell>
        <mxCell id="MiD2MkpI0hm2RFPDv_2f-40" value="" style="edgeStyle=orthogonalEdgeStyle;rounded=0;orthogonalLoop=1;jettySize=auto;html=1;strokeWidth=2;" parent="1" source="MiD2MkpI0hm2RFPDv_2f-37" target="MiD2MkpI0hm2RFPDv_2f-9" edge="1">
          <mxGeometry relative="1" as="geometry" />
        </mxCell>
        <mxCell id="MiD2MkpI0hm2RFPDv_2f-37" value="&lt;font style=&quot;font-size: 14px;&quot;&gt;VALIDATE USER&lt;/font&gt;" style="rounded=0;whiteSpace=wrap;html=1;strokeWidth=2;" parent="1" vertex="1">
          <mxGeometry x="667.0697652923053" y="982.3174074074072" width="142.11982652039958" height="84.35185185185185" as="geometry" />
        </mxCell>
        <mxCell id="MiD2MkpI0hm2RFPDv_2f-76" value="" style="group;strokeWidth=2;" parent="1" vertex="1" connectable="0">
          <mxGeometry x="1345" y="30.00000000000003" width="910.95" height="1470" as="geometry" />
        </mxCell>
        <mxCell id="MiD2MkpI0hm2RFPDv_2f-43" value="" style="edgeStyle=orthogonalEdgeStyle;rounded=0;orthogonalLoop=1;jettySize=auto;html=1;exitX=1;exitY=0.25;exitDx=0;exitDy=0;strokeWidth=2;" parent="MiD2MkpI0hm2RFPDv_2f-76" source="BFEsGPovhOtkj3C0qsOE-12" target="MiD2MkpI0hm2RFPDv_2f-42" edge="1">
          <mxGeometry relative="1" as="geometry">
            <mxPoint x="567.6666666666665" y="161.00000000000009" as="sourcePoint" />
          </mxGeometry>
        </mxCell>
        <mxCell id="MiD2MkpI0hm2RFPDv_2f-49" style="edgeStyle=orthogonalEdgeStyle;rounded=0;orthogonalLoop=1;jettySize=auto;html=1;entryX=0.5;entryY=0;entryDx=0;entryDy=0;strokeWidth=2;" parent="MiD2MkpI0hm2RFPDv_2f-76" source="MiD2MkpI0hm2RFPDv_2f-42" target="MiD2MkpI0hm2RFPDv_2f-46" edge="1">
          <mxGeometry relative="1" as="geometry" />
        </mxCell>
        <mxCell id="MiD2MkpI0hm2RFPDv_2f-50" style="edgeStyle=orthogonalEdgeStyle;rounded=0;orthogonalLoop=1;jettySize=auto;html=1;entryX=0.5;entryY=0;entryDx=0;entryDy=0;strokeWidth=2;" parent="MiD2MkpI0hm2RFPDv_2f-76" source="MiD2MkpI0hm2RFPDv_2f-42" target="MiD2MkpI0hm2RFPDv_2f-47" edge="1">
          <mxGeometry relative="1" as="geometry" />
        </mxCell>
        <mxCell id="MiD2MkpI0hm2RFPDv_2f-42" value="&lt;font style=&quot;font-size: 18px;&quot;&gt;&lt;b&gt;HOME&lt;/b&gt;&lt;/font&gt;" style="rounded=1;whiteSpace=wrap;html=1;absoluteArcSize=1;arcSize=14;strokeWidth=2;" parent="MiD2MkpI0hm2RFPDv_2f-76" vertex="1">
          <mxGeometry x="486.62" y="200" width="163.36" height="80" as="geometry" />
        </mxCell>
        <mxCell id="MiD2MkpI0hm2RFPDv_2f-52" value="" style="edgeStyle=orthogonalEdgeStyle;rounded=0;orthogonalLoop=1;jettySize=auto;html=1;strokeWidth=2;" parent="MiD2MkpI0hm2RFPDv_2f-76" source="MiD2MkpI0hm2RFPDv_2f-46" target="MiD2MkpI0hm2RFPDv_2f-70" edge="1">
          <mxGeometry relative="1" as="geometry">
            <mxPoint x="300.66666666666663" y="510" as="targetPoint" />
          </mxGeometry>
        </mxCell>
        <mxCell id="MiD2MkpI0hm2RFPDv_2f-46" value="&lt;font style=&quot;font-size: 18px;&quot;&gt;&lt;b&gt;PROFILE/&lt;/b&gt;&lt;/font&gt;&lt;div&gt;&lt;font style=&quot;font-size: 18px;&quot;&gt;&lt;b&gt;STUDENT INFO&lt;/b&gt;&lt;/font&gt;&lt;/div&gt;" style="rounded=1;whiteSpace=wrap;html=1;absoluteArcSize=1;arcSize=14;strokeWidth=2;" parent="MiD2MkpI0hm2RFPDv_2f-76" vertex="1">
          <mxGeometry x="219.00000000000003" y="350" width="163.36" height="80" as="geometry" />
        </mxCell>
        <mxCell id="MiD2MkpI0hm2RFPDv_2f-73" value="" style="edgeStyle=orthogonalEdgeStyle;rounded=0;orthogonalLoop=1;jettySize=auto;html=1;strokeWidth=2;" parent="MiD2MkpI0hm2RFPDv_2f-76" source="MiD2MkpI0hm2RFPDv_2f-47" target="MiD2MkpI0hm2RFPDv_2f-72" edge="1">
          <mxGeometry relative="1" as="geometry" />
        </mxCell>
        <mxCell id="MiD2MkpI0hm2RFPDv_2f-47" value="&lt;span style=&quot;font-size: 18px;&quot;&gt;&lt;b&gt;HISTORY&lt;/b&gt;&lt;/span&gt;" style="rounded=1;whiteSpace=wrap;html=1;absoluteArcSize=1;arcSize=14;strokeWidth=2;" parent="MiD2MkpI0hm2RFPDv_2f-76" vertex="1">
          <mxGeometry x="740.95" y="350" width="163.36" height="80" as="geometry" />
        </mxCell>
        <mxCell id="MiD2MkpI0hm2RFPDv_2f-58" value="" style="edgeStyle=orthogonalEdgeStyle;rounded=0;orthogonalLoop=1;jettySize=auto;html=1;strokeWidth=2;" parent="MiD2MkpI0hm2RFPDv_2f-76" source="MiD2MkpI0hm2RFPDv_2f-70" target="MiD2MkpI0hm2RFPDv_2f-57" edge="1">
          <mxGeometry relative="1" as="geometry">
            <mxPoint x="301.66666666666663" y="590" as="sourcePoint" />
          </mxGeometry>
        </mxCell>
        <mxCell id="MiD2MkpI0hm2RFPDv_2f-62" value="" style="edgeStyle=orthogonalEdgeStyle;rounded=0;orthogonalLoop=1;jettySize=auto;html=1;strokeWidth=2;" parent="MiD2MkpI0hm2RFPDv_2f-76" source="MiD2MkpI0hm2RFPDv_2f-57" target="MiD2MkpI0hm2RFPDv_2f-61" edge="1">
          <mxGeometry relative="1" as="geometry" />
        </mxCell>
        <mxCell id="MiD2MkpI0hm2RFPDv_2f-65" style="edgeStyle=orthogonalEdgeStyle;rounded=0;orthogonalLoop=1;jettySize=auto;html=1;exitX=0;exitY=0.5;exitDx=0;exitDy=0;exitPerimeter=0;strokeWidth=2;" parent="MiD2MkpI0hm2RFPDv_2f-76" source="MiD2MkpI0hm2RFPDv_2f-57" edge="1">
          <mxGeometry relative="1" as="geometry">
            <mxPoint x="219" y="390" as="targetPoint" />
            <Array as="points">
              <mxPoint x="159" y="695" />
              <mxPoint x="159" y="390" />
            </Array>
          </mxGeometry>
        </mxCell>
        <mxCell id="MiD2MkpI0hm2RFPDv_2f-57" value="&lt;span style=&quot;font-size: 14px;&quot;&gt;&lt;b&gt;IS STUDENT&amp;nbsp;&lt;/b&gt;&lt;/span&gt;&lt;div&gt;&lt;span style=&quot;font-size: 14px;&quot;&gt;&lt;b&gt;INFORMATION&amp;nbsp;&lt;/b&gt;&lt;/span&gt;&lt;/div&gt;&lt;div&gt;&lt;span style=&quot;font-size: 14px;&quot;&gt;&lt;b&gt;CORRECT?&lt;/b&gt;&lt;/span&gt;&lt;/div&gt;" style="strokeWidth=2;html=1;shape=mxgraph.flowchart.decision;whiteSpace=wrap;" parent="MiD2MkpI0hm2RFPDv_2f-76" vertex="1">
          <mxGeometry x="208.84" y="600" width="188.32" height="190" as="geometry" />
        </mxCell>
        <mxCell id="MiD2MkpI0hm2RFPDv_2f-67" value="" style="edgeStyle=orthogonalEdgeStyle;rounded=0;orthogonalLoop=1;jettySize=auto;html=1;strokeWidth=2;" parent="MiD2MkpI0hm2RFPDv_2f-76" source="MiD2MkpI0hm2RFPDv_2f-61" target="MiD2MkpI0hm2RFPDv_2f-66" edge="1">
          <mxGeometry relative="1" as="geometry" />
        </mxCell>
        <mxCell id="MiD2MkpI0hm2RFPDv_2f-61" value="&lt;span style=&quot;font-size: 14px;&quot;&gt;&lt;b&gt;ENTER CONCERN&lt;/b&gt;&lt;/span&gt;" style="shape=parallelogram;perimeter=parallelogramPerimeter;whiteSpace=wrap;html=1;fixedSize=1;strokeWidth=2;" parent="MiD2MkpI0hm2RFPDv_2f-76" vertex="1">
          <mxGeometry x="204.68" y="840" width="196.64" height="90" as="geometry" />
        </mxCell>
        <mxCell id="MiD2MkpI0hm2RFPDv_2f-63" value="YES" style="text;html=1;align=center;verticalAlign=middle;resizable=0;points=[];autosize=1;strokeColor=none;fillColor=none;strokeWidth=2;" parent="MiD2MkpI0hm2RFPDv_2f-76" vertex="1">
          <mxGeometry x="164.68" y="710" width="50" height="30" as="geometry" />
        </mxCell>
        <mxCell id="MiD2MkpI0hm2RFPDv_2f-64" value="NO" style="text;html=1;align=center;verticalAlign=middle;resizable=0;points=[];autosize=1;strokeColor=none;fillColor=none;strokeWidth=2;" parent="MiD2MkpI0hm2RFPDv_2f-76" vertex="1">
          <mxGeometry x="309.8" y="790" width="40" height="30" as="geometry" />
        </mxCell>
        <mxCell id="MiD2MkpI0hm2RFPDv_2f-69" value="" style="edgeStyle=orthogonalEdgeStyle;rounded=0;orthogonalLoop=1;jettySize=auto;html=1;strokeWidth=2;" parent="MiD2MkpI0hm2RFPDv_2f-76" source="MiD2MkpI0hm2RFPDv_2f-66" target="MiD2MkpI0hm2RFPDv_2f-68" edge="1">
          <mxGeometry relative="1" as="geometry" />
        </mxCell>
        <mxCell id="MiD2MkpI0hm2RFPDv_2f-66" value="&lt;b&gt;&lt;font style=&quot;font-size: 14px;&quot;&gt;SUBMIT CONCERN TO ADMIN&lt;/font&gt;&lt;/b&gt;" style="rounded=1;whiteSpace=wrap;html=1;absoluteArcSize=1;arcSize=14;strokeWidth=2;" parent="MiD2MkpI0hm2RFPDv_2f-76" vertex="1">
          <mxGeometry x="204.68" y="970" width="196.64" height="80" as="geometry" />
        </mxCell>
        <mxCell id="MiD2MkpI0hm2RFPDv_2f-68" value="&lt;font style=&quot;font-size: 17px;&quot;&gt;userConcerns&lt;/font&gt;&lt;div style=&quot;font-size: 17px;&quot;&gt;&lt;font style=&quot;font-size: 17px;&quot;&gt;DB&lt;/font&gt;&lt;/div&gt;" style="strokeWidth=2;html=1;shape=mxgraph.flowchart.database;whiteSpace=wrap;" parent="MiD2MkpI0hm2RFPDv_2f-76" vertex="1">
          <mxGeometry x="245" y="1090" width="116" height="130" as="geometry" />
        </mxCell>
        <mxCell id="MiD2MkpI0hm2RFPDv_2f-70" value="&lt;font style=&quot;font-size: 14px;&quot;&gt;&lt;b&gt;DISPLAY STUDENT INFORMATION&lt;/b&gt;&lt;/font&gt;" style="shape=parallelogram;perimeter=parallelogramPerimeter;whiteSpace=wrap;html=1;fixedSize=1;strokeWidth=2;" parent="MiD2MkpI0hm2RFPDv_2f-76" vertex="1">
          <mxGeometry x="213.36" y="490" width="176.64" height="80" as="geometry" />
        </mxCell>
        <mxCell id="MiD2MkpI0hm2RFPDv_2f-72" value="&lt;font style=&quot;font-size: 14px;&quot;&gt;&lt;b&gt;DISPLAY TIME IN /&lt;/b&gt;&lt;/font&gt;&lt;div&gt;&lt;font size=&quot;3&quot;&gt;&lt;b&gt;TIME OUT&lt;/b&gt;&lt;/font&gt;&lt;/div&gt;" style="shape=parallelogram;perimeter=parallelogramPerimeter;whiteSpace=wrap;html=1;fixedSize=1;strokeWidth=2;" parent="MiD2MkpI0hm2RFPDv_2f-76" vertex="1">
          <mxGeometry x="734.3100000000001" y="520" width="176.64" height="80" as="geometry" />
        </mxCell>
        <mxCell id="BFEsGPovhOtkj3C0qsOE-12" value="A" style="verticalLabelPosition=bottom;verticalAlign=top;html=1;shape=offPageConnector;rounded=0;size=0.5;strokeWidth=2;" parent="MiD2MkpI0hm2RFPDv_2f-76" vertex="1">
          <mxGeometry x="475" y="89.99999999999997" width="60" height="60" as="geometry" />
        </mxCell>
        <mxCell id="MiD2MkpI0hm2RFPDv_2f-106" value="" style="group;strokeWidth=2;" parent="1" vertex="1" connectable="0">
          <mxGeometry x="260" y="1665" width="910.95" height="1470" as="geometry" />
        </mxCell>
        <mxCell id="MiD2MkpI0hm2RFPDv_2f-109" value="&lt;span style=&quot;font-size: 36px;&quot;&gt;ADMIN SIDE&lt;/span&gt;" style="text;html=1;align=center;verticalAlign=middle;resizable=0;points=[];autosize=1;strokeColor=none;fillColor=none;strokeWidth=2;" parent="MiD2MkpI0hm2RFPDv_2f-106" vertex="1">
          <mxGeometry x="30" y="20" width="230" height="60" as="geometry" />
        </mxCell>
        <mxCell id="MiD2MkpI0hm2RFPDv_2f-133" value="" style="group;strokeWidth=2;" parent="MiD2MkpI0hm2RFPDv_2f-106" vertex="1" connectable="0">
          <mxGeometry x="506.55030614047143" y="200" width="175.55978570167005" height="84.35185185185185" as="geometry" />
        </mxCell>
        <mxCell id="MiD2MkpI0hm2RFPDv_2f-134" value="" style="ellipse;whiteSpace=wrap;html=1;strokeWidth=2;" parent="MiD2MkpI0hm2RFPDv_2f-133" vertex="1">
          <mxGeometry width="175.55978570167005" height="84.35185185185185" as="geometry" />
        </mxCell>
        <mxCell id="MiD2MkpI0hm2RFPDv_2f-135" value="&lt;font style=&quot;font-size: 24px;&quot;&gt;START&lt;/font&gt;" style="text;html=1;align=center;verticalAlign=middle;whiteSpace=wrap;rounded=0;strokeWidth=2;" parent="MiD2MkpI0hm2RFPDv_2f-133" vertex="1">
          <mxGeometry x="66.64106151124618" y="32.44301994301995" width="42.99423323306205" height="19.46581196581197" as="geometry" />
        </mxCell>
        <mxCell id="MiD2MkpI0hm2RFPDv_2f-136" value="" style="endArrow=classic;html=1;rounded=0;exitX=0.5;exitY=1;exitDx=0;exitDy=0;entryX=0.5;entryY=0;entryDx=0;entryDy=0;strokeWidth=2;" parent="MiD2MkpI0hm2RFPDv_2f-106" source="MiD2MkpI0hm2RFPDv_2f-134" target="MiD2MkpI0hm2RFPDv_2f-141" edge="1">
          <mxGeometry width="50" height="50" relative="1" as="geometry">
            <mxPoint x="594.3301989913064" y="284.35185185185173" as="sourcePoint" />
            <mxPoint x="594.3301989913064" y="334.96296296296305" as="targetPoint" />
          </mxGeometry>
        </mxCell>
        <mxCell id="MiD2MkpI0hm2RFPDv_2f-137" value="" style="edgeStyle=orthogonalEdgeStyle;rounded=0;orthogonalLoop=1;jettySize=auto;html=1;strokeWidth=2;" parent="MiD2MkpI0hm2RFPDv_2f-106" source="MiD2MkpI0hm2RFPDv_2f-138" target="MiD2MkpI0hm2RFPDv_2f-158" edge="1">
          <mxGeometry relative="1" as="geometry" />
        </mxCell>
        <mxCell id="MiD2MkpI0hm2RFPDv_2f-138" value="&lt;font style=&quot;font-size: 18px;&quot;&gt;LOGIN&lt;/font&gt;" style="rounded=0;whiteSpace=wrap;html=1;strokeWidth=2;" parent="MiD2MkpI0hm2RFPDv_2f-106" vertex="1">
          <mxGeometry x="523.6297652923054" y="537.4074074074074" width="142.11982652039958" height="84.35185185185185" as="geometry" />
        </mxCell>
        <mxCell id="MiD2MkpI0hm2RFPDv_2f-139" style="edgeStyle=orthogonalEdgeStyle;rounded=0;orthogonalLoop=1;jettySize=auto;html=1;exitX=0.5;exitY=1;exitDx=0;exitDy=0;entryX=0.5;entryY=0;entryDx=0;entryDy=0;strokeWidth=2;" parent="MiD2MkpI0hm2RFPDv_2f-106" source="MiD2MkpI0hm2RFPDv_2f-141" target="MiD2MkpI0hm2RFPDv_2f-138" edge="1">
          <mxGeometry relative="1" as="geometry" />
        </mxCell>
        <mxCell id="MiD2MkpI0hm2RFPDv_2f-140" style="edgeStyle=orthogonalEdgeStyle;rounded=0;orthogonalLoop=1;jettySize=auto;html=1;exitX=0;exitY=0.5;exitDx=0;exitDy=0;strokeWidth=2;" parent="MiD2MkpI0hm2RFPDv_2f-106" source="MiD2MkpI0hm2RFPDv_2f-141" target="MiD2MkpI0hm2RFPDv_2f-152" edge="1">
          <mxGeometry relative="1" as="geometry" />
        </mxCell>
        <mxCell id="MiD2MkpI0hm2RFPDv_2f-141" value="&lt;font style=&quot;font-size: 18px;&quot;&gt;HAS 5&lt;/font&gt;&lt;div&gt;&lt;font style=&quot;font-size: 18px;&quot;&gt;ATTEMPTS&lt;/font&gt;&lt;/div&gt;" style="rhombus;whiteSpace=wrap;html=1;strokeWidth=2;" parent="MiD2MkpI0hm2RFPDv_2f-106" vertex="1">
          <mxGeometry x="521.5397678434759" y="334.96296296296305" width="146.29982141805834" height="151.83333333333337" as="geometry" />
        </mxCell>
        <mxCell id="MiD2MkpI0hm2RFPDv_2f-142" style="edgeStyle=orthogonalEdgeStyle;rounded=0;orthogonalLoop=1;jettySize=auto;html=1;exitX=1;exitY=0.5;exitDx=0;exitDy=0;entryX=1;entryY=0.5;entryDx=0;entryDy=0;strokeWidth=2;" parent="MiD2MkpI0hm2RFPDv_2f-106" source="MiD2MkpI0hm2RFPDv_2f-144" target="MiD2MkpI0hm2RFPDv_2f-141" edge="1">
          <mxGeometry relative="1" as="geometry">
            <Array as="points">
              <mxPoint x="757.47" y="1017" />
              <mxPoint x="757.47" y="411" />
            </Array>
          </mxGeometry>
        </mxCell>
        <mxCell id="MiD2MkpI0hm2RFPDv_2f-143" style="edgeStyle=orthogonalEdgeStyle;rounded=0;orthogonalLoop=1;jettySize=auto;html=1;exitX=0.5;exitY=1;exitDx=0;exitDy=0;entryX=0.5;entryY=0;entryDx=0;entryDy=0;strokeWidth=2;" parent="MiD2MkpI0hm2RFPDv_2f-106" source="MiD2MkpI0hm2RFPDv_2f-144" target="MiD2MkpI0hm2RFPDv_2f-146" edge="1">
          <mxGeometry relative="1" as="geometry" />
        </mxCell>
        <mxCell id="MiD2MkpI0hm2RFPDv_2f-144" value="&lt;font style=&quot;font-size: 14px;&quot;&gt;AUTHORIZED&lt;/font&gt;" style="rhombus;whiteSpace=wrap;html=1;strokeWidth=2;" parent="MiD2MkpI0hm2RFPDv_2f-106" vertex="1">
          <mxGeometry x="520.909767843476" y="940.9955555555562" width="146.29982141805834" height="151.83333333333337" as="geometry" />
        </mxCell>
        <mxCell id="MiD2MkpI0hm2RFPDv_2f-145" value="" style="edgeStyle=orthogonalEdgeStyle;rounded=0;orthogonalLoop=1;jettySize=auto;html=1;strokeWidth=2;" parent="MiD2MkpI0hm2RFPDv_2f-106" source="MiD2MkpI0hm2RFPDv_2f-146" target="BFEsGPovhOtkj3C0qsOE-6" edge="1">
          <mxGeometry relative="1" as="geometry">
            <mxPoint x="595.0601989913062" y="1305.548518518519" as="targetPoint" />
          </mxGeometry>
        </mxCell>
        <mxCell id="MiD2MkpI0hm2RFPDv_2f-146" value="&lt;font style=&quot;font-size: 18px;&quot;&gt;GRANT ACCESS&lt;/font&gt;" style="rounded=0;whiteSpace=wrap;html=1;strokeWidth=2;" parent="MiD2MkpI0hm2RFPDv_2f-106" vertex="1">
          <mxGeometry x="522.9077647820712" y="1155.545555555556" width="142.11982652039958" height="84.35185185185185" as="geometry" />
        </mxCell>
        <mxCell id="MiD2MkpI0hm2RFPDv_2f-147" value="&lt;font style=&quot;font-size: 18px;&quot;&gt;YES&amp;nbsp;&lt;/font&gt;" style="text;html=1;align=center;verticalAlign=middle;resizable=0;points=[];autosize=1;strokeColor=none;fillColor=none;strokeWidth=2;" parent="MiD2MkpI0hm2RFPDv_2f-106" vertex="1">
          <mxGeometry x="592.690188786624" y="1100.9968518518522" width="60" height="40" as="geometry" />
        </mxCell>
        <mxCell id="MiD2MkpI0hm2RFPDv_2f-148" value="&lt;font style=&quot;font-size: 18px;&quot;&gt;NO&lt;/font&gt;" style="text;html=1;align=center;verticalAlign=middle;resizable=0;points=[];autosize=1;strokeColor=none;fillColor=none;strokeWidth=2;" parent="MiD2MkpI0hm2RFPDv_2f-106" vertex="1">
          <mxGeometry x="684.480102046824" y="975.5462962962965" width="50" height="40" as="geometry" />
        </mxCell>
        <mxCell id="MiD2MkpI0hm2RFPDv_2f-149" value="&lt;font style=&quot;font-size: 18px;&quot;&gt;YES&amp;nbsp;&lt;/font&gt;" style="text;html=1;align=center;verticalAlign=middle;resizable=0;points=[];autosize=1;strokeColor=none;fillColor=none;strokeWidth=2;" parent="MiD2MkpI0hm2RFPDv_2f-106" vertex="1">
          <mxGeometry x="473.4698265203996" y="360.2685185185185" width="60" height="40" as="geometry" />
        </mxCell>
        <mxCell id="MiD2MkpI0hm2RFPDv_2f-150" value="&lt;font style=&quot;font-size: 18px;&quot;&gt;NO&lt;/font&gt;" style="text;html=1;align=center;verticalAlign=middle;resizable=0;points=[];autosize=1;strokeColor=none;fillColor=none;strokeWidth=2;" parent="MiD2MkpI0hm2RFPDv_2f-106" vertex="1">
          <mxGeometry x="602.690188786624" y="486.79629629629653" width="50" height="40" as="geometry" />
        </mxCell>
        <mxCell id="MiD2MkpI0hm2RFPDv_2f-151" value="" style="edgeStyle=orthogonalEdgeStyle;rounded=0;orthogonalLoop=1;jettySize=auto;html=1;strokeWidth=2;" parent="MiD2MkpI0hm2RFPDv_2f-106" source="MiD2MkpI0hm2RFPDv_2f-152" target="MiD2MkpI0hm2RFPDv_2f-154" edge="1">
          <mxGeometry relative="1" as="geometry" />
        </mxCell>
        <mxCell id="MiD2MkpI0hm2RFPDv_2f-152" value="&lt;font style=&quot;font-size: 18px;&quot;&gt;LOCKED&lt;/font&gt;&lt;div&gt;&lt;span style=&quot;font-size: 18px; background-color: initial;&quot;&gt;ACCOUNT&lt;/span&gt;&lt;div&gt;&lt;div&gt;&lt;font style=&quot;font-size: 18px;&quot;&gt;IN 1 HOUR&lt;/font&gt;&lt;/div&gt;&lt;/div&gt;&lt;/div&gt;" style="rounded=0;whiteSpace=wrap;html=1;strokeWidth=2;" parent="MiD2MkpI0hm2RFPDv_2f-106" vertex="1">
          <mxGeometry x="153.47000000000003" y="537.4074074074074" width="142.11982652039958" height="84.35185185185185" as="geometry" />
        </mxCell>
        <mxCell id="MiD2MkpI0hm2RFPDv_2f-153" style="edgeStyle=orthogonalEdgeStyle;rounded=0;orthogonalLoop=1;jettySize=auto;html=1;strokeWidth=2;" parent="MiD2MkpI0hm2RFPDv_2f-106" source="MiD2MkpI0hm2RFPDv_2f-154" target="MiD2MkpI0hm2RFPDv_2f-156" edge="1">
          <mxGeometry relative="1" as="geometry" />
        </mxCell>
        <mxCell id="MiD2MkpI0hm2RFPDv_2f-154" value="&lt;font style=&quot;font-size: 18px;&quot;&gt;ALERT USER&amp;nbsp;&lt;/font&gt;" style="rounded=0;whiteSpace=wrap;html=1;strokeWidth=2;" parent="MiD2MkpI0hm2RFPDv_2f-106" vertex="1">
          <mxGeometry x="153.94651941833314" y="714.5462962962961" width="142.11982652039958" height="84.35185185185185" as="geometry" />
        </mxCell>
        <mxCell id="MiD2MkpI0hm2RFPDv_2f-156" value="END" style="ellipse;whiteSpace=wrap;html=1;strokeWidth=2;" parent="MiD2MkpI0hm2RFPDv_2f-106" vertex="1">
          <mxGeometry x="174.8464939066272" y="983.1685185185188" width="100.31987754381144" height="67.4814814814815" as="geometry" />
        </mxCell>
        <mxCell id="MiD2MkpI0hm2RFPDv_2f-157" value="" style="edgeStyle=orthogonalEdgeStyle;rounded=0;orthogonalLoop=1;jettySize=auto;html=1;strokeWidth=2;" parent="MiD2MkpI0hm2RFPDv_2f-106" source="MiD2MkpI0hm2RFPDv_2f-158" target="MiD2MkpI0hm2RFPDv_2f-162" edge="1">
          <mxGeometry relative="1" as="geometry" />
        </mxCell>
        <mxCell id="MiD2MkpI0hm2RFPDv_2f-158" value="&lt;div&gt;&lt;span style=&quot;font-size: 14px;&quot;&gt;Admin User ID&lt;/span&gt;&lt;/div&gt;&lt;div&gt;&lt;font size=&quot;3&quot;&gt;and&lt;/font&gt;&lt;/div&gt;&lt;div&gt;&lt;font size=&quot;3&quot;&gt;&amp;nbsp;PASSWORD&lt;/font&gt;&lt;/div&gt;" style="shape=parallelogram;html=1;strokeWidth=2;perimeter=parallelogramPerimeter;whiteSpace=wrap;rounded=1;arcSize=12;size=0.23;" parent="MiD2MkpI0hm2RFPDv_2f-106" vertex="1">
          <mxGeometry x="494.33000000000004" y="671" width="200" height="80" as="geometry" />
        </mxCell>
        <mxCell id="MiD2MkpI0hm2RFPDv_2f-159" value="" style="edgeStyle=orthogonalEdgeStyle;rounded=0;orthogonalLoop=1;jettySize=auto;html=1;strokeWidth=2;" parent="MiD2MkpI0hm2RFPDv_2f-106" source="MiD2MkpI0hm2RFPDv_2f-160" target="MiD2MkpI0hm2RFPDv_2f-162" edge="1">
          <mxGeometry relative="1" as="geometry" />
        </mxCell>
        <mxCell id="MiD2MkpI0hm2RFPDv_2f-160" value="&lt;b&gt;STUDENT DB&lt;/b&gt;" style="strokeWidth=2;html=1;shape=mxgraph.flowchart.database;whiteSpace=wrap;" parent="MiD2MkpI0hm2RFPDv_2f-106" vertex="1">
          <mxGeometry x="363.47" y="782.6599999999999" width="100" height="133.59" as="geometry" />
        </mxCell>
        <mxCell id="MiD2MkpI0hm2RFPDv_2f-161" value="" style="edgeStyle=orthogonalEdgeStyle;rounded=0;orthogonalLoop=1;jettySize=auto;html=1;strokeWidth=2;" parent="MiD2MkpI0hm2RFPDv_2f-106" source="MiD2MkpI0hm2RFPDv_2f-162" target="MiD2MkpI0hm2RFPDv_2f-144" edge="1">
          <mxGeometry relative="1" as="geometry" />
        </mxCell>
        <mxCell id="MiD2MkpI0hm2RFPDv_2f-162" value="&lt;font style=&quot;font-size: 14px;&quot;&gt;VALIDATE USER&lt;/font&gt;" style="rounded=0;whiteSpace=wrap;html=1;strokeWidth=2;" parent="MiD2MkpI0hm2RFPDv_2f-106" vertex="1">
          <mxGeometry x="522.5397652923053" y="807.2774074074073" width="142.11982652039958" height="84.35185185185185" as="geometry" />
        </mxCell>
        <mxCell id="BFEsGPovhOtkj3C0qsOE-6" value="B" style="verticalLabelPosition=bottom;verticalAlign=top;html=1;shape=offPageConnector;rounded=0;size=0.6758086419753151;strokeWidth=2;" parent="MiD2MkpI0hm2RFPDv_2f-106" vertex="1">
          <mxGeometry x="564.0601989913062" y="1275.548518518519" width="60" height="60" as="geometry" />
        </mxCell>
        <mxCell id="MiD2MkpI0hm2RFPDv_2f-171" value="" style="edgeStyle=orthogonalEdgeStyle;rounded=0;orthogonalLoop=1;jettySize=auto;html=1;exitX=1.031;exitY=0.348;exitDx=0;exitDy=0;exitPerimeter=0;strokeWidth=2;" parent="1" source="BFEsGPovhOtkj3C0qsOE-7" target="MiD2MkpI0hm2RFPDv_2f-170" edge="1">
          <mxGeometry relative="1" as="geometry">
            <mxPoint x="1539.520198991307" y="3418.0448148148153" as="sourcePoint" />
            <Array as="points">
              <mxPoint x="1526.52" y="3359" />
              <mxPoint x="1539.52" y="3359" />
            </Array>
          </mxGeometry>
        </mxCell>
        <mxCell id="MiD2MkpI0hm2RFPDv_2f-175" value="" style="edgeStyle=orthogonalEdgeStyle;rounded=0;orthogonalLoop=1;jettySize=auto;html=1;strokeWidth=2;" parent="1" source="MiD2MkpI0hm2RFPDv_2f-170" target="MiD2MkpI0hm2RFPDv_2f-173" edge="1">
          <mxGeometry relative="1" as="geometry" />
        </mxCell>
        <mxCell id="MiD2MkpI0hm2RFPDv_2f-170" value="&lt;span style=&quot;font-size: 18px;&quot;&gt;DECISION&lt;/span&gt;" style="rounded=1;whiteSpace=wrap;html=1;absoluteArcSize=1;arcSize=14;strokeWidth=2;" parent="1" vertex="1">
          <mxGeometry x="1460" y="3464" width="159.04" height="80" as="geometry" />
        </mxCell>
        <mxCell id="MiD2MkpI0hm2RFPDv_2f-179" value="" style="edgeStyle=orthogonalEdgeStyle;rounded=0;orthogonalLoop=1;jettySize=auto;html=1;strokeWidth=2;" parent="1" source="MiD2MkpI0hm2RFPDv_2f-173" target="MiD2MkpI0hm2RFPDv_2f-178" edge="1">
          <mxGeometry relative="1" as="geometry" />
        </mxCell>
        <mxCell id="MiD2MkpI0hm2RFPDv_2f-173" value="&lt;font style=&quot;font-size: 18px;&quot;&gt;ADD SECTION&lt;/font&gt;" style="rounded=1;whiteSpace=wrap;html=1;absoluteArcSize=1;arcSize=14;strokeWidth=2;" parent="1" vertex="1">
          <mxGeometry x="1699.52" y="3564" width="170" height="65" as="geometry" />
        </mxCell>
        <mxCell id="MiD2MkpI0hm2RFPDv_2f-232" value="" style="edgeStyle=orthogonalEdgeStyle;rounded=0;orthogonalLoop=1;jettySize=auto;html=1;strokeWidth=2;" parent="1" source="MiD2MkpI0hm2RFPDv_2f-176" target="MiD2MkpI0hm2RFPDv_2f-202" edge="1">
          <mxGeometry relative="1" as="geometry" />
        </mxCell>
        <mxCell id="MiD2MkpI0hm2RFPDv_2f-176" value="&lt;font style=&quot;font-size: 21px;&quot;&gt;ADD STUDENT&lt;/font&gt;" style="rounded=1;whiteSpace=wrap;html=1;absoluteArcSize=1;arcSize=14;strokeWidth=2;" parent="1" vertex="1">
          <mxGeometry x="1689.52" y="3789" width="190" height="70" as="geometry" />
        </mxCell>
        <mxCell id="hYAcStnYISpaymhXTc3v-127" style="edgeStyle=orthogonalEdgeStyle;rounded=0;orthogonalLoop=1;jettySize=auto;html=1;entryX=0.5;entryY=0;entryDx=0;entryDy=0;" parent="1" source="MiD2MkpI0hm2RFPDv_2f-178" target="MiD2MkpI0hm2RFPDv_2f-176" edge="1">
          <mxGeometry relative="1" as="geometry" />
        </mxCell>
        <mxCell id="MiD2MkpI0hm2RFPDv_2f-178" value="&lt;font style=&quot;font-size: 18px;&quot;&gt;ENTER SECTION&lt;/font&gt;" style="shape=parallelogram;perimeter=parallelogramPerimeter;whiteSpace=wrap;html=1;fixedSize=1;rounded=1;arcSize=14;strokeWidth=2;" parent="1" vertex="1">
          <mxGeometry x="1679.52" y="3671" width="210" height="70" as="geometry" />
        </mxCell>
        <mxCell id="MiD2MkpI0hm2RFPDv_2f-205" value="" style="edgeStyle=orthogonalEdgeStyle;rounded=0;orthogonalLoop=1;jettySize=auto;html=1;strokeWidth=2;" parent="1" source="MiD2MkpI0hm2RFPDv_2f-202" target="MiD2MkpI0hm2RFPDv_2f-204" edge="1">
          <mxGeometry relative="1" as="geometry" />
        </mxCell>
        <mxCell id="MiD2MkpI0hm2RFPDv_2f-202" value="&lt;font style=&quot;font-size: 18px;&quot;&gt;ENTER STUDENT INFORMATION&lt;/font&gt;" style="shape=parallelogram;perimeter=parallelogramPerimeter;whiteSpace=wrap;html=1;fixedSize=1;rounded=1;arcSize=14;strokeWidth=2;" parent="1" vertex="1">
          <mxGeometry x="1679.52" y="3894" width="210" height="80" as="geometry" />
        </mxCell>
        <mxCell id="MiD2MkpI0hm2RFPDv_2f-229" value="" style="edgeStyle=orthogonalEdgeStyle;rounded=0;orthogonalLoop=1;jettySize=auto;html=1;strokeWidth=2;" parent="1" source="MiD2MkpI0hm2RFPDv_2f-204" target="MiD2MkpI0hm2RFPDv_2f-225" edge="1">
          <mxGeometry relative="1" as="geometry" />
        </mxCell>
        <mxCell id="MiD2MkpI0hm2RFPDv_2f-204" value="&lt;font style=&quot;font-size: 19px;&quot;&gt;VALIDATE STUDENT&lt;/font&gt;" style="rounded=1;whiteSpace=wrap;html=1;absoluteArcSize=1;arcSize=14;strokeWidth=2;" parent="1" vertex="1">
          <mxGeometry x="1699.52" y="4009" width="170" height="80" as="geometry" />
        </mxCell>
        <mxCell id="MiD2MkpI0hm2RFPDv_2f-218" value="" style="edgeStyle=orthogonalEdgeStyle;rounded=0;orthogonalLoop=1;jettySize=auto;html=1;strokeWidth=2;" parent="1" source="MiD2MkpI0hm2RFPDv_2f-219" edge="1">
          <mxGeometry relative="1" as="geometry">
            <mxPoint x="1699.52" y="4049" as="targetPoint" />
          </mxGeometry>
        </mxCell>
        <mxCell id="MiD2MkpI0hm2RFPDv_2f-219" value="STUDENT DATABASE" style="strokeWidth=2;html=1;shape=mxgraph.flowchart.database;whiteSpace=wrap;" parent="1" vertex="1">
          <mxGeometry x="1579.52" y="3994" width="80" height="110" as="geometry" />
        </mxCell>
        <mxCell id="MiD2MkpI0hm2RFPDv_2f-224" value="" style="edgeStyle=orthogonalEdgeStyle;rounded=0;orthogonalLoop=1;jettySize=auto;html=1;strokeWidth=2;" parent="1" source="MiD2MkpI0hm2RFPDv_2f-225" target="MiD2MkpI0hm2RFPDv_2f-227" edge="1">
          <mxGeometry relative="1" as="geometry" />
        </mxCell>
        <mxCell id="MiD2MkpI0hm2RFPDv_2f-253" value="" style="edgeStyle=orthogonalEdgeStyle;rounded=0;orthogonalLoop=1;jettySize=auto;html=1;strokeWidth=2;" parent="1" source="MiD2MkpI0hm2RFPDv_2f-225" target="MiD2MkpI0hm2RFPDv_2f-252" edge="1">
          <mxGeometry relative="1" as="geometry">
            <Array as="points">
              <mxPoint x="1784.52" y="4309" />
            </Array>
          </mxGeometry>
        </mxCell>
        <mxCell id="MiD2MkpI0hm2RFPDv_2f-258" style="edgeStyle=orthogonalEdgeStyle;rounded=0;orthogonalLoop=1;jettySize=auto;html=1;exitX=0.5;exitY=1;exitDx=0;exitDy=0;strokeWidth=2;" parent="1" source="MiD2MkpI0hm2RFPDv_2f-225" target="MiD2MkpI0hm2RFPDv_2f-219" edge="1">
          <mxGeometry relative="1" as="geometry">
            <Array as="points">
              <mxPoint x="1784.52" y="4309" />
              <mxPoint x="1619.52" y="4309" />
            </Array>
          </mxGeometry>
        </mxCell>
        <mxCell id="MiD2MkpI0hm2RFPDv_2f-263" style="edgeStyle=orthogonalEdgeStyle;rounded=0;orthogonalLoop=1;jettySize=auto;html=1;entryX=0.5;entryY=0;entryDx=0;entryDy=0;strokeWidth=2;" parent="1" source="MiD2MkpI0hm2RFPDv_2f-225" target="MiD2MkpI0hm2RFPDv_2f-261" edge="1">
          <mxGeometry relative="1" as="geometry" />
        </mxCell>
        <mxCell id="MiD2MkpI0hm2RFPDv_2f-225" value="&lt;span style=&quot;font-size: 16px;&quot;&gt;IS THE&lt;/span&gt;&lt;div&gt;&lt;span style=&quot;font-size: 16px;&quot;&gt;&amp;nbsp;STUDENT&amp;nbsp;&lt;/span&gt;&lt;/div&gt;&lt;div&gt;&lt;span style=&quot;font-size: 16px;&quot;&gt;ALREDY EXIST&amp;nbsp;&lt;/span&gt;&lt;div&gt;&lt;span style=&quot;font-size: 16px;&quot;&gt;IN DB&lt;/span&gt;&lt;/div&gt;&lt;/div&gt;" style="rhombus;whiteSpace=wrap;html=1;strokeWidth=2;" parent="1" vertex="1">
          <mxGeometry x="1699.52" y="4119" width="170" height="160" as="geometry" />
        </mxCell>
        <mxCell id="MiD2MkpI0hm2RFPDv_2f-226" value="YES" style="text;html=1;align=center;verticalAlign=middle;resizable=0;points=[];autosize=1;strokeColor=none;fillColor=none;strokeWidth=2;" parent="1" vertex="1">
          <mxGeometry x="1899.52" y="4204" width="50" height="30" as="geometry" />
        </mxCell>
        <mxCell id="MiD2MkpI0hm2RFPDv_2f-230" style="edgeStyle=orthogonalEdgeStyle;rounded=0;orthogonalLoop=1;jettySize=auto;html=1;entryX=1;entryY=0.5;entryDx=0;entryDy=0;strokeWidth=2;" parent="1" source="MiD2MkpI0hm2RFPDv_2f-227" target="MiD2MkpI0hm2RFPDv_2f-176" edge="1">
          <mxGeometry relative="1" as="geometry">
            <Array as="points">
              <mxPoint x="2049.52" y="3829" />
            </Array>
          </mxGeometry>
        </mxCell>
        <mxCell id="MiD2MkpI0hm2RFPDv_2f-227" value="DISPLAY :&lt;div&gt;STUDENT ALREDY EXIST&lt;/div&gt;" style="shape=parallelogram;perimeter=parallelogramPerimeter;whiteSpace=wrap;html=1;fixedSize=1;strokeWidth=2;" parent="1" vertex="1">
          <mxGeometry x="1959.52" y="4164" width="180" height="70" as="geometry" />
        </mxCell>
        <mxCell id="MiD2MkpI0hm2RFPDv_2f-228" value="NO" style="text;html=1;align=center;verticalAlign=middle;resizable=0;points=[];autosize=1;strokeColor=none;fillColor=none;strokeWidth=2;" parent="1" vertex="1">
          <mxGeometry x="1799.52" y="4263.35" width="40" height="30" as="geometry" />
        </mxCell>
        <mxCell id="MiD2MkpI0hm2RFPDv_2f-252" value="DISPLAY:&amp;nbsp;&lt;div&gt;STUDENT DATA SUCCESSFULLY&amp;nbsp;&lt;div&gt;SUBMITTED TO DB&lt;/div&gt;&lt;/div&gt;" style="shape=parallelogram;perimeter=parallelogramPerimeter;whiteSpace=wrap;html=1;fixedSize=1;strokeWidth=2;" parent="1" vertex="1">
          <mxGeometry x="1959.52" y="4263.35" width="150" height="80" as="geometry" />
        </mxCell>
        <mxCell id="MiD2MkpI0hm2RFPDv_2f-255" value="&lt;span style=&quot;font-size: 24px;&quot;&gt;END&lt;/span&gt;" style="strokeWidth=2;html=1;shape=mxgraph.flowchart.start_2;whiteSpace=wrap;" parent="1" vertex="1">
          <mxGeometry x="1479.52" y="4537" width="120" height="80" as="geometry" />
        </mxCell>
        <mxCell id="MiD2MkpI0hm2RFPDv_2f-267" value="" style="edgeStyle=orthogonalEdgeStyle;rounded=0;orthogonalLoop=1;jettySize=auto;html=1;strokeWidth=2;" parent="1" source="MiD2MkpI0hm2RFPDv_2f-261" target="MiD2MkpI0hm2RFPDv_2f-266" edge="1">
          <mxGeometry relative="1" as="geometry" />
        </mxCell>
        <mxCell id="MiD2MkpI0hm2RFPDv_2f-261" value="&lt;span style=&quot;font-size: 16px;&quot;&gt;ADD&amp;nbsp;&lt;/span&gt;&lt;div&gt;&lt;span style=&quot;font-size: 16px;&quot;&gt;ANOTHER&amp;nbsp;&lt;/span&gt;&lt;/div&gt;&lt;div&gt;&lt;span style=&quot;font-size: 16px;&quot;&gt;STUDENT&lt;/span&gt;&lt;/div&gt;" style="rhombus;whiteSpace=wrap;html=1;strokeWidth=2;" parent="1" vertex="1">
          <mxGeometry x="1699.52" y="4349" width="170" height="160" as="geometry" />
        </mxCell>
        <mxCell id="MiD2MkpI0hm2RFPDv_2f-266" value="&lt;font style=&quot;font-size: 22px;&quot;&gt;C&lt;/font&gt;" style="ellipse;whiteSpace=wrap;html=1;strokeWidth=2;" parent="1" vertex="1">
          <mxGeometry x="1999.52" y="4399" width="60" height="60" as="geometry" />
        </mxCell>
        <mxCell id="MiD2MkpI0hm2RFPDv_2f-269" value="" style="edgeStyle=orthogonalEdgeStyle;rounded=0;orthogonalLoop=1;jettySize=auto;html=1;strokeWidth=2;" parent="1" source="MiD2MkpI0hm2RFPDv_2f-268" target="MiD2MkpI0hm2RFPDv_2f-176" edge="1">
          <mxGeometry relative="1" as="geometry" />
        </mxCell>
        <mxCell id="MiD2MkpI0hm2RFPDv_2f-268" value="&lt;font style=&quot;font-size: 22px;&quot;&gt;C&lt;/font&gt;" style="ellipse;whiteSpace=wrap;html=1;strokeWidth=2;" parent="1" vertex="1">
          <mxGeometry x="1509.52" y="3859" width="60" height="60" as="geometry" />
        </mxCell>
        <mxCell id="BFEsGPovhOtkj3C0qsOE-7" value="B" style="verticalLabelPosition=bottom;verticalAlign=top;html=1;shape=offPageConnector;rounded=0;size=0.6758086419753151;strokeWidth=2;" parent="1" vertex="1">
          <mxGeometry x="1464.5201989913062" y="3339.9985185185187" width="60" height="60" as="geometry" />
        </mxCell>
        <mxCell id="BFEsGPovhOtkj3C0qsOE-8" style="edgeStyle=orthogonalEdgeStyle;rounded=0;orthogonalLoop=1;jettySize=auto;html=1;entryX=1;entryY=0.5;entryDx=0;entryDy=0;entryPerimeter=0;strokeWidth=2;" parent="1" source="MiD2MkpI0hm2RFPDv_2f-261" target="MiD2MkpI0hm2RFPDv_2f-255" edge="1">
          <mxGeometry relative="1" as="geometry">
            <Array as="points">
              <mxPoint x="1784.52" y="4577" />
            </Array>
          </mxGeometry>
        </mxCell>
        <mxCell id="BFEsGPovhOtkj3C0qsOE-11" value="" style="edgeStyle=orthogonalEdgeStyle;rounded=0;orthogonalLoop=1;jettySize=auto;html=1;strokeWidth=2;" parent="1" source="MiD2MkpI0hm2RFPDv_2f-12" target="BFEsGPovhOtkj3C0qsOE-10" edge="1">
          <mxGeometry relative="1" as="geometry">
            <mxPoint x="739" y="1415.04" as="sourcePoint" />
            <mxPoint x="739.5901989913068" y="1480.5885185185186" as="targetPoint" />
          </mxGeometry>
        </mxCell>
        <mxCell id="BFEsGPovhOtkj3C0qsOE-10" value="A" style="verticalLabelPosition=bottom;verticalAlign=top;html=1;shape=offPageConnector;rounded=0;size=0.8333333333333334;strokeWidth=2;" parent="1" vertex="1">
          <mxGeometry x="709.22" y="1477.04" width="60" height="60" as="geometry" />
        </mxCell>
        <mxCell id="nmU1WVXjk_JCZ_7SNKL_-1" value="" style="edgeStyle=orthogonalEdgeStyle;rounded=0;orthogonalLoop=1;jettySize=auto;html=1;exitX=1.031;exitY=0.348;exitDx=0;exitDy=0;exitPerimeter=0;strokeWidth=2;" parent="1" source="nmU1WVXjk_JCZ_7SNKL_-54" target="nmU1WVXjk_JCZ_7SNKL_-4" edge="1">
          <mxGeometry relative="1" as="geometry">
            <mxPoint x="2990.000198991307" y="288.04481481481525" as="sourcePoint" />
            <Array as="points">
              <mxPoint x="2977" y="229" />
              <mxPoint x="2990" y="229" />
            </Array>
          </mxGeometry>
        </mxCell>
        <mxCell id="nmU1WVXjk_JCZ_7SNKL_-2" style="edgeStyle=orthogonalEdgeStyle;rounded=0;orthogonalLoop=1;jettySize=auto;html=1;entryX=0.5;entryY=0;entryDx=0;entryDy=0;strokeWidth=2;" parent="1" edge="1">
          <mxGeometry relative="1" as="geometry">
            <mxPoint x="2985.4799999999996" y="369.92857142857156" as="sourcePoint" />
            <mxPoint x="2790" y="430" as="targetPoint" />
          </mxGeometry>
        </mxCell>
        <mxCell id="nmU1WVXjk_JCZ_7SNKL_-3" value="" style="edgeStyle=orthogonalEdgeStyle;rounded=0;orthogonalLoop=1;jettySize=auto;html=1;strokeWidth=2;" parent="1" source="nmU1WVXjk_JCZ_7SNKL_-4" edge="1">
          <mxGeometry relative="1" as="geometry">
            <mxPoint x="3235" y="434" as="targetPoint" />
          </mxGeometry>
        </mxCell>
        <mxCell id="nmU1WVXjk_JCZ_7SNKL_-4" value="&lt;span style=&quot;font-size: 18px;&quot;&gt;DECISION&lt;/span&gt;" style="rounded=1;whiteSpace=wrap;html=1;absoluteArcSize=1;arcSize=14;strokeWidth=2;" parent="1" vertex="1">
          <mxGeometry x="2910.48" y="334" width="159.04" height="80" as="geometry" />
        </mxCell>
        <mxCell id="nmU1WVXjk_JCZ_7SNKL_-54" value="B" style="verticalLabelPosition=bottom;verticalAlign=top;html=1;shape=offPageConnector;rounded=0;size=0.6758086419753151;strokeWidth=2;" parent="1" vertex="1">
          <mxGeometry x="2915.000198991306" y="209.99851851851872" width="60" height="60" as="geometry" />
        </mxCell>
        <mxCell id="nmU1WVXjk_JCZ_7SNKL_-58" style="edgeStyle=orthogonalEdgeStyle;rounded=0;orthogonalLoop=1;jettySize=auto;html=1;exitX=0.5;exitY=1;exitDx=0;exitDy=0;entryX=0.5;entryY=0;entryDx=0;entryDy=0;" parent="1" source="nmU1WVXjk_JCZ_7SNKL_-56" target="nmU1WVXjk_JCZ_7SNKL_-57" edge="1">
          <mxGeometry relative="1" as="geometry" />
        </mxCell>
        <mxCell id="nmU1WVXjk_JCZ_7SNKL_-56" value="&lt;font style=&quot;font-size: 18px;&quot;&gt;ADD SECTION&lt;/font&gt;" style="rounded=1;whiteSpace=wrap;html=1;" parent="1" vertex="1">
          <mxGeometry x="2715" y="425.5" width="160" height="80" as="geometry" />
        </mxCell>
        <mxCell id="hYAcStnYISpaymhXTc3v-4" value="" style="edgeStyle=orthogonalEdgeStyle;rounded=0;orthogonalLoop=1;jettySize=auto;html=1;" parent="1" source="nmU1WVXjk_JCZ_7SNKL_-57" target="hYAcStnYISpaymhXTc3v-2" edge="1">
          <mxGeometry relative="1" as="geometry" />
        </mxCell>
        <mxCell id="nmU1WVXjk_JCZ_7SNKL_-57" value="&lt;font style=&quot;font-size: 18px;&quot;&gt;ENTER SECTION&lt;br&gt;DETAILS&lt;/font&gt;" style="shape=parallelogram;perimeter=parallelogramPerimeter;whiteSpace=wrap;html=1;fixedSize=1;rounded=1;arcSize=14;strokeWidth=2;" parent="1" vertex="1">
          <mxGeometry x="2690" y="559.5" width="210" height="70" as="geometry" />
        </mxCell>
        <mxCell id="hYAcStnYISpaymhXTc3v-9" style="edgeStyle=orthogonalEdgeStyle;rounded=0;orthogonalLoop=1;jettySize=auto;html=1;entryX=0;entryY=0.5;entryDx=0;entryDy=0;" parent="1" source="hYAcStnYISpaymhXTc3v-2" target="nmU1WVXjk_JCZ_7SNKL_-56" edge="1">
          <mxGeometry relative="1" as="geometry">
            <Array as="points">
              <mxPoint x="2600" y="769.5" />
              <mxPoint x="2600" y="465.5" />
            </Array>
          </mxGeometry>
        </mxCell>
        <mxCell id="hYAcStnYISpaymhXTc3v-16" style="edgeStyle=orthogonalEdgeStyle;rounded=0;orthogonalLoop=1;jettySize=auto;html=1;exitX=0.5;exitY=1;exitDx=0;exitDy=0;entryX=0.5;entryY=0;entryDx=0;entryDy=0;" parent="1" source="hYAcStnYISpaymhXTc3v-2" target="hYAcStnYISpaymhXTc3v-13" edge="1">
          <mxGeometry relative="1" as="geometry" />
        </mxCell>
        <mxCell id="hYAcStnYISpaymhXTc3v-2" value="&lt;span style=&quot;font-size: 16px;&quot;&gt;IS&lt;br&gt;&amp;nbsp;SECTION&lt;br&gt;&amp;nbsp;ALREADY &lt;br&gt;EXIST?&amp;nbsp;&lt;/span&gt;" style="rhombus;whiteSpace=wrap;html=1;strokeWidth=2;" parent="1" vertex="1">
          <mxGeometry x="2710" y="689.5" width="170" height="160" as="geometry" />
        </mxCell>
        <mxCell id="hYAcStnYISpaymhXTc3v-7" value="SECTION TABLE" style="strokeWidth=2;html=1;shape=mxgraph.flowchart.database;whiteSpace=wrap;" parent="1" vertex="1">
          <mxGeometry x="2640" y="849.5" width="80" height="110" as="geometry" />
        </mxCell>
        <mxCell id="hYAcStnYISpaymhXTc3v-12" style="edgeStyle=orthogonalEdgeStyle;rounded=0;orthogonalLoop=1;jettySize=auto;html=1;exitX=0.5;exitY=1;exitDx=0;exitDy=0;entryX=1;entryY=0.5;entryDx=0;entryDy=0;entryPerimeter=0;" parent="1" source="hYAcStnYISpaymhXTc3v-2" target="hYAcStnYISpaymhXTc3v-7" edge="1">
          <mxGeometry relative="1" as="geometry" />
        </mxCell>
        <mxCell id="hYAcStnYISpaymhXTc3v-15" style="edgeStyle=orthogonalEdgeStyle;rounded=0;orthogonalLoop=1;jettySize=auto;html=1;exitX=0;exitY=0.5;exitDx=0;exitDy=0;entryX=0;entryY=0.5;entryDx=0;entryDy=0;" parent="1" source="hYAcStnYISpaymhXTc3v-13" target="nmU1WVXjk_JCZ_7SNKL_-56" edge="1">
          <mxGeometry relative="1" as="geometry">
            <Array as="points">
              <mxPoint x="2600" y="1049.5" />
              <mxPoint x="2600" y="465.5" />
            </Array>
          </mxGeometry>
        </mxCell>
        <mxCell id="hYAcStnYISpaymhXTc3v-13" value="&lt;span style=&quot;font-size: 16px;&quot;&gt;ADD ANOTHER&lt;br&gt;SECTION?&lt;/span&gt;" style="rhombus;whiteSpace=wrap;html=1;strokeWidth=2;" parent="1" vertex="1">
          <mxGeometry x="2710" y="969.5" width="170" height="160" as="geometry" />
        </mxCell>
        <mxCell id="hYAcStnYISpaymhXTc3v-72" value="" style="edgeStyle=orthogonalEdgeStyle;rounded=0;orthogonalLoop=1;jettySize=auto;html=1;exitX=1.031;exitY=0.348;exitDx=0;exitDy=0;exitPerimeter=0;strokeWidth=2;" parent="1" source="hYAcStnYISpaymhXTc3v-125" target="hYAcStnYISpaymhXTc3v-75" edge="1">
          <mxGeometry relative="1" as="geometry">
            <mxPoint x="2770.000198991307" y="3368.0448148148153" as="sourcePoint" />
            <Array as="points">
              <mxPoint x="2757" y="3309" />
              <mxPoint x="2770" y="3309" />
            </Array>
          </mxGeometry>
        </mxCell>
        <mxCell id="hYAcStnYISpaymhXTc3v-73" style="edgeStyle=orthogonalEdgeStyle;rounded=0;orthogonalLoop=1;jettySize=auto;html=1;entryX=0.5;entryY=0;entryDx=0;entryDy=0;strokeWidth=2;" parent="1" source="hYAcStnYISpaymhXTc3v-75" target="hYAcStnYISpaymhXTc3v-77" edge="1">
          <mxGeometry relative="1" as="geometry" />
        </mxCell>
        <mxCell id="hYAcStnYISpaymhXTc3v-74" value="" style="edgeStyle=orthogonalEdgeStyle;rounded=0;orthogonalLoop=1;jettySize=auto;html=1;strokeWidth=2;" parent="1" source="hYAcStnYISpaymhXTc3v-75" target="hYAcStnYISpaymhXTc3v-79" edge="1">
          <mxGeometry relative="1" as="geometry" />
        </mxCell>
        <mxCell id="hYAcStnYISpaymhXTc3v-75" value="&lt;span style=&quot;font-size: 18px;&quot;&gt;DECISION&lt;/span&gt;" style="rounded=1;whiteSpace=wrap;html=1;absoluteArcSize=1;arcSize=14;strokeWidth=2;" parent="1" vertex="1">
          <mxGeometry x="2690.48" y="3414" width="159.04" height="80" as="geometry" />
        </mxCell>
        <mxCell id="hYAcStnYISpaymhXTc3v-76" style="edgeStyle=orthogonalEdgeStyle;rounded=0;orthogonalLoop=1;jettySize=auto;html=1;exitX=0.5;exitY=1;exitDx=0;exitDy=0;strokeWidth=2;" parent="1" source="hYAcStnYISpaymhXTc3v-77" target="hYAcStnYISpaymhXTc3v-111" edge="1">
          <mxGeometry relative="1" as="geometry" />
        </mxCell>
        <mxCell id="hYAcStnYISpaymhXTc3v-77" value="&lt;font style=&quot;font-size: 18px;&quot;&gt;ADD TEACHER&lt;/font&gt;" style="rounded=1;whiteSpace=wrap;html=1;absoluteArcSize=1;arcSize=14;strokeWidth=2;" parent="1" vertex="1">
          <mxGeometry x="2410" y="3514" width="170" height="75" as="geometry" />
        </mxCell>
        <mxCell id="hYAcStnYISpaymhXTc3v-78" value="" style="edgeStyle=orthogonalEdgeStyle;rounded=0;orthogonalLoop=1;jettySize=auto;html=1;strokeWidth=2;" parent="1" source="hYAcStnYISpaymhXTc3v-79" target="hYAcStnYISpaymhXTc3v-83" edge="1">
          <mxGeometry relative="1" as="geometry" />
        </mxCell>
        <mxCell id="hYAcStnYISpaymhXTc3v-79" value="&lt;font style=&quot;font-size: 18px;&quot;&gt;ADD SECTION&lt;/font&gt;" style="rounded=1;whiteSpace=wrap;html=1;absoluteArcSize=1;arcSize=14;strokeWidth=2;" parent="1" vertex="1">
          <mxGeometry x="2930" y="3514" width="170" height="65" as="geometry" />
        </mxCell>
        <mxCell id="hYAcStnYISpaymhXTc3v-80" value="" style="edgeStyle=orthogonalEdgeStyle;rounded=0;orthogonalLoop=1;jettySize=auto;html=1;strokeWidth=2;" parent="1" source="hYAcStnYISpaymhXTc3v-81" target="hYAcStnYISpaymhXTc3v-89" edge="1">
          <mxGeometry relative="1" as="geometry" />
        </mxCell>
        <mxCell id="hYAcStnYISpaymhXTc3v-81" value="&lt;font style=&quot;font-size: 21px;&quot;&gt;ADD STUDENT&lt;/font&gt;" style="rounded=1;whiteSpace=wrap;html=1;absoluteArcSize=1;arcSize=14;strokeWidth=2;" parent="1" vertex="1">
          <mxGeometry x="2920" y="3844" width="190" height="70" as="geometry" />
        </mxCell>
        <mxCell id="hYAcStnYISpaymhXTc3v-82" value="" style="edgeStyle=orthogonalEdgeStyle;rounded=0;orthogonalLoop=1;jettySize=auto;html=1;strokeWidth=2;" parent="1" source="hYAcStnYISpaymhXTc3v-83" target="hYAcStnYISpaymhXTc3v-85" edge="1">
          <mxGeometry relative="1" as="geometry" />
        </mxCell>
        <mxCell id="hYAcStnYISpaymhXTc3v-83" value="&lt;font style=&quot;font-size: 18px;&quot;&gt;ENTER SECTION&lt;/font&gt;" style="shape=parallelogram;perimeter=parallelogramPerimeter;whiteSpace=wrap;html=1;fixedSize=1;rounded=1;arcSize=14;strokeWidth=2;" parent="1" vertex="1">
          <mxGeometry x="2910" y="3621" width="210" height="70" as="geometry" />
        </mxCell>
        <mxCell id="hYAcStnYISpaymhXTc3v-84" value="" style="edgeStyle=orthogonalEdgeStyle;rounded=0;orthogonalLoop=1;jettySize=auto;html=1;strokeWidth=2;" parent="1" source="hYAcStnYISpaymhXTc3v-85" target="hYAcStnYISpaymhXTc3v-81" edge="1">
          <mxGeometry relative="1" as="geometry" />
        </mxCell>
        <mxCell id="hYAcStnYISpaymhXTc3v-85" value="&lt;span style=&quot;font-size: 18px;&quot;&gt;ENTER TEACHER&lt;/span&gt;" style="shape=parallelogram;perimeter=parallelogramPerimeter;whiteSpace=wrap;html=1;fixedSize=1;rounded=1;arcSize=14;strokeWidth=2;" parent="1" vertex="1">
          <mxGeometry x="2910" y="3729" width="210" height="70" as="geometry" />
        </mxCell>
        <mxCell id="hYAcStnYISpaymhXTc3v-86" value="" style="edgeStyle=orthogonalEdgeStyle;rounded=0;orthogonalLoop=1;jettySize=auto;html=1;strokeWidth=2;" parent="1" source="hYAcStnYISpaymhXTc3v-87" target="hYAcStnYISpaymhXTc3v-85" edge="1">
          <mxGeometry relative="1" as="geometry" />
        </mxCell>
        <mxCell id="hYAcStnYISpaymhXTc3v-87" value="TEACHER&lt;div&gt;DATABASE&lt;/div&gt;" style="strokeWidth=2;html=1;shape=mxgraph.flowchart.database;whiteSpace=wrap;" parent="1" vertex="1">
          <mxGeometry x="2730" y="3724" width="80" height="120" as="geometry" />
        </mxCell>
        <mxCell id="hYAcStnYISpaymhXTc3v-88" value="" style="edgeStyle=orthogonalEdgeStyle;rounded=0;orthogonalLoop=1;jettySize=auto;html=1;strokeWidth=2;" parent="1" source="hYAcStnYISpaymhXTc3v-89" target="hYAcStnYISpaymhXTc3v-91" edge="1">
          <mxGeometry relative="1" as="geometry" />
        </mxCell>
        <mxCell id="hYAcStnYISpaymhXTc3v-89" value="&lt;font style=&quot;font-size: 18px;&quot;&gt;ENTER STUDENT INFORMATION&lt;/font&gt;" style="shape=parallelogram;perimeter=parallelogramPerimeter;whiteSpace=wrap;html=1;fixedSize=1;rounded=1;arcSize=14;strokeWidth=2;" parent="1" vertex="1">
          <mxGeometry x="2910" y="3949" width="210" height="80" as="geometry" />
        </mxCell>
        <mxCell id="hYAcStnYISpaymhXTc3v-90" value="" style="edgeStyle=orthogonalEdgeStyle;rounded=0;orthogonalLoop=1;jettySize=auto;html=1;strokeWidth=2;" parent="1" source="hYAcStnYISpaymhXTc3v-91" target="hYAcStnYISpaymhXTc3v-98" edge="1">
          <mxGeometry relative="1" as="geometry" />
        </mxCell>
        <mxCell id="hYAcStnYISpaymhXTc3v-91" value="&lt;font style=&quot;font-size: 19px;&quot;&gt;VALIDATE STUDENT&lt;/font&gt;" style="rounded=1;whiteSpace=wrap;html=1;absoluteArcSize=1;arcSize=14;strokeWidth=2;" parent="1" vertex="1">
          <mxGeometry x="2930" y="4064" width="170" height="80" as="geometry" />
        </mxCell>
        <mxCell id="hYAcStnYISpaymhXTc3v-92" value="" style="edgeStyle=orthogonalEdgeStyle;rounded=0;orthogonalLoop=1;jettySize=auto;html=1;strokeWidth=2;" parent="1" source="hYAcStnYISpaymhXTc3v-93" edge="1">
          <mxGeometry relative="1" as="geometry">
            <mxPoint x="2930" y="4104" as="targetPoint" />
          </mxGeometry>
        </mxCell>
        <mxCell id="hYAcStnYISpaymhXTc3v-93" value="STUDENT DATABASE" style="strokeWidth=2;html=1;shape=mxgraph.flowchart.database;whiteSpace=wrap;" parent="1" vertex="1">
          <mxGeometry x="2810" y="4049" width="80" height="110" as="geometry" />
        </mxCell>
        <mxCell id="hYAcStnYISpaymhXTc3v-94" value="" style="edgeStyle=orthogonalEdgeStyle;rounded=0;orthogonalLoop=1;jettySize=auto;html=1;strokeWidth=2;" parent="1" source="hYAcStnYISpaymhXTc3v-98" target="hYAcStnYISpaymhXTc3v-101" edge="1">
          <mxGeometry relative="1" as="geometry" />
        </mxCell>
        <mxCell id="hYAcStnYISpaymhXTc3v-95" value="" style="edgeStyle=orthogonalEdgeStyle;rounded=0;orthogonalLoop=1;jettySize=auto;html=1;strokeWidth=2;" parent="1" source="hYAcStnYISpaymhXTc3v-98" target="hYAcStnYISpaymhXTc3v-103" edge="1">
          <mxGeometry relative="1" as="geometry">
            <Array as="points">
              <mxPoint x="3015" y="4364" />
            </Array>
          </mxGeometry>
        </mxCell>
        <mxCell id="hYAcStnYISpaymhXTc3v-96" style="edgeStyle=orthogonalEdgeStyle;rounded=0;orthogonalLoop=1;jettySize=auto;html=1;exitX=0.5;exitY=1;exitDx=0;exitDy=0;strokeWidth=2;" parent="1" source="hYAcStnYISpaymhXTc3v-98" target="hYAcStnYISpaymhXTc3v-93" edge="1">
          <mxGeometry relative="1" as="geometry">
            <Array as="points">
              <mxPoint x="3015" y="4364" />
              <mxPoint x="2850" y="4364" />
            </Array>
          </mxGeometry>
        </mxCell>
        <mxCell id="hYAcStnYISpaymhXTc3v-97" style="edgeStyle=orthogonalEdgeStyle;rounded=0;orthogonalLoop=1;jettySize=auto;html=1;entryX=0.5;entryY=0;entryDx=0;entryDy=0;strokeWidth=2;" parent="1" source="hYAcStnYISpaymhXTc3v-98" target="hYAcStnYISpaymhXTc3v-106" edge="1">
          <mxGeometry relative="1" as="geometry" />
        </mxCell>
        <mxCell id="hYAcStnYISpaymhXTc3v-98" value="&lt;span style=&quot;font-size: 16px;&quot;&gt;IS THE&lt;/span&gt;&lt;div&gt;&lt;span style=&quot;font-size: 16px;&quot;&gt;&amp;nbsp;STUDENT&amp;nbsp;&lt;/span&gt;&lt;/div&gt;&lt;div&gt;&lt;span style=&quot;font-size: 16px;&quot;&gt;ALREDY EXIST&amp;nbsp;&lt;/span&gt;&lt;div&gt;&lt;span style=&quot;font-size: 16px;&quot;&gt;IN DB&lt;/span&gt;&lt;/div&gt;&lt;/div&gt;" style="rhombus;whiteSpace=wrap;html=1;strokeWidth=2;" parent="1" vertex="1">
          <mxGeometry x="2930" y="4174" width="170" height="160" as="geometry" />
        </mxCell>
        <mxCell id="hYAcStnYISpaymhXTc3v-99" value="YES" style="text;html=1;align=center;verticalAlign=middle;resizable=0;points=[];autosize=1;strokeColor=none;fillColor=none;strokeWidth=2;" parent="1" vertex="1">
          <mxGeometry x="3130" y="4259" width="50" height="30" as="geometry" />
        </mxCell>
        <mxCell id="hYAcStnYISpaymhXTc3v-100" style="edgeStyle=orthogonalEdgeStyle;rounded=0;orthogonalLoop=1;jettySize=auto;html=1;entryX=1;entryY=0.5;entryDx=0;entryDy=0;strokeWidth=2;" parent="1" source="hYAcStnYISpaymhXTc3v-101" target="hYAcStnYISpaymhXTc3v-81" edge="1">
          <mxGeometry relative="1" as="geometry">
            <Array as="points">
              <mxPoint x="3280" y="3884" />
            </Array>
          </mxGeometry>
        </mxCell>
        <mxCell id="hYAcStnYISpaymhXTc3v-101" value="DISPLAY :&lt;div&gt;STUDENT ALREDY EXIST&lt;/div&gt;" style="shape=parallelogram;perimeter=parallelogramPerimeter;whiteSpace=wrap;html=1;fixedSize=1;strokeWidth=2;" parent="1" vertex="1">
          <mxGeometry x="3190" y="4219" width="180" height="70" as="geometry" />
        </mxCell>
        <mxCell id="hYAcStnYISpaymhXTc3v-102" value="NO" style="text;html=1;align=center;verticalAlign=middle;resizable=0;points=[];autosize=1;strokeColor=none;fillColor=none;strokeWidth=2;" parent="1" vertex="1">
          <mxGeometry x="3030" y="4318.35" width="40" height="30" as="geometry" />
        </mxCell>
        <mxCell id="hYAcStnYISpaymhXTc3v-103" value="DISPLAY:&amp;nbsp;&lt;div&gt;STUDENT DATA SUCCESSFULLY&amp;nbsp;&lt;div&gt;SUBMITTED TO DB&lt;/div&gt;&lt;/div&gt;" style="shape=parallelogram;perimeter=parallelogramPerimeter;whiteSpace=wrap;html=1;fixedSize=1;strokeWidth=2;" parent="1" vertex="1">
          <mxGeometry x="3190" y="4318.35" width="150" height="80" as="geometry" />
        </mxCell>
        <mxCell id="hYAcStnYISpaymhXTc3v-104" value="&lt;span style=&quot;font-size: 24px;&quot;&gt;END&lt;/span&gt;" style="strokeWidth=2;html=1;shape=mxgraph.flowchart.start_2;whiteSpace=wrap;" parent="1" vertex="1">
          <mxGeometry x="2710" y="4659" width="120" height="80" as="geometry" />
        </mxCell>
        <mxCell id="hYAcStnYISpaymhXTc3v-105" value="" style="edgeStyle=orthogonalEdgeStyle;rounded=0;orthogonalLoop=1;jettySize=auto;html=1;strokeWidth=2;" parent="1" source="hYAcStnYISpaymhXTc3v-106" target="hYAcStnYISpaymhXTc3v-107" edge="1">
          <mxGeometry relative="1" as="geometry" />
        </mxCell>
        <mxCell id="hYAcStnYISpaymhXTc3v-106" value="&lt;span style=&quot;font-size: 16px;&quot;&gt;ADD&amp;nbsp;&lt;/span&gt;&lt;div&gt;&lt;span style=&quot;font-size: 16px;&quot;&gt;ANOTHER&amp;nbsp;&lt;/span&gt;&lt;/div&gt;&lt;div&gt;&lt;span style=&quot;font-size: 16px;&quot;&gt;STUDENT&lt;/span&gt;&lt;/div&gt;" style="rhombus;whiteSpace=wrap;html=1;strokeWidth=2;" parent="1" vertex="1">
          <mxGeometry x="2930" y="4404" width="170" height="160" as="geometry" />
        </mxCell>
        <mxCell id="hYAcStnYISpaymhXTc3v-107" value="&lt;font style=&quot;font-size: 22px;&quot;&gt;C&lt;/font&gt;" style="ellipse;whiteSpace=wrap;html=1;strokeWidth=2;" parent="1" vertex="1">
          <mxGeometry x="3230" y="4454" width="60" height="60" as="geometry" />
        </mxCell>
        <mxCell id="hYAcStnYISpaymhXTc3v-108" value="" style="edgeStyle=orthogonalEdgeStyle;rounded=0;orthogonalLoop=1;jettySize=auto;html=1;strokeWidth=2;" parent="1" source="hYAcStnYISpaymhXTc3v-109" target="hYAcStnYISpaymhXTc3v-81" edge="1">
          <mxGeometry relative="1" as="geometry" />
        </mxCell>
        <mxCell id="hYAcStnYISpaymhXTc3v-109" value="&lt;font style=&quot;font-size: 22px;&quot;&gt;C&lt;/font&gt;" style="ellipse;whiteSpace=wrap;html=1;strokeWidth=2;" parent="1" vertex="1">
          <mxGeometry x="2740" y="3914" width="60" height="60" as="geometry" />
        </mxCell>
        <mxCell id="hYAcStnYISpaymhXTc3v-110" style="edgeStyle=orthogonalEdgeStyle;rounded=0;orthogonalLoop=1;jettySize=auto;html=1;exitX=0.5;exitY=1;exitDx=0;exitDy=0;entryX=0.5;entryY=0.011;entryDx=0;entryDy=0;entryPerimeter=0;strokeWidth=2;" parent="1" source="hYAcStnYISpaymhXTc3v-111" target="hYAcStnYISpaymhXTc3v-113" edge="1">
          <mxGeometry relative="1" as="geometry">
            <mxPoint x="2495" y="3744" as="targetPoint" />
          </mxGeometry>
        </mxCell>
        <mxCell id="hYAcStnYISpaymhXTc3v-111" value="&lt;font style=&quot;font-size: 18px;&quot;&gt;ENTER TEACHER CREDENTIAL&lt;/font&gt;" style="shape=parallelogram;perimeter=parallelogramPerimeter;whiteSpace=wrap;html=1;fixedSize=1;rounded=1;arcSize=14;strokeWidth=2;" parent="1" vertex="1">
          <mxGeometry x="2395" y="3629" width="200" height="70" as="geometry" />
        </mxCell>
        <mxCell id="hYAcStnYISpaymhXTc3v-112" value="" style="edgeStyle=orthogonalEdgeStyle;rounded=0;orthogonalLoop=1;jettySize=auto;html=1;strokeWidth=2;" parent="1" source="hYAcStnYISpaymhXTc3v-113" target="hYAcStnYISpaymhXTc3v-118" edge="1">
          <mxGeometry relative="1" as="geometry">
            <Array as="points">
              <mxPoint x="2495" y="3939" />
              <mxPoint x="2495" y="3939" />
            </Array>
          </mxGeometry>
        </mxCell>
        <mxCell id="hYAcStnYISpaymhXTc3v-113" value="&lt;span style=&quot;font-size: 16px;&quot;&gt;IS&lt;/span&gt;&lt;div&gt;&lt;span style=&quot;font-size: 16px;&quot;&gt;&amp;nbsp;TEACHER&lt;/span&gt;&lt;div&gt;&lt;span style=&quot;font-size: 16px;&quot;&gt;ALREADY IN&lt;/span&gt;&lt;/div&gt;&lt;div&gt;&lt;span style=&quot;font-size: 16px;&quot;&gt;DB&lt;/span&gt;&lt;/div&gt;&lt;/div&gt;" style="rhombus;whiteSpace=wrap;html=1;strokeWidth=2;" parent="1" vertex="1">
          <mxGeometry x="2410" y="3733" width="170" height="160" as="geometry" />
        </mxCell>
        <mxCell id="hYAcStnYISpaymhXTc3v-114" style="edgeStyle=orthogonalEdgeStyle;rounded=0;orthogonalLoop=1;jettySize=auto;html=1;exitX=0;exitY=0.5;exitDx=0;exitDy=0;exitPerimeter=0;entryX=0.99;entryY=0.499;entryDx=0;entryDy=0;entryPerimeter=0;strokeWidth=2;" parent="1" source="hYAcStnYISpaymhXTc3v-87" target="hYAcStnYISpaymhXTc3v-113" edge="1">
          <mxGeometry relative="1" as="geometry">
            <mxPoint x="2590" y="3819" as="targetPoint" />
            <Array as="points">
              <mxPoint x="2600" y="3784" />
              <mxPoint x="2600" y="3813" />
            </Array>
          </mxGeometry>
        </mxCell>
        <mxCell id="hYAcStnYISpaymhXTc3v-115" value="NO" style="text;html=1;align=center;verticalAlign=middle;resizable=0;points=[];autosize=1;strokeColor=none;fillColor=none;strokeWidth=2;" parent="1" vertex="1">
          <mxGeometry x="2520" y="3893" width="40" height="30" as="geometry" />
        </mxCell>
        <mxCell id="hYAcStnYISpaymhXTc3v-116" value="YES" style="text;html=1;align=center;verticalAlign=middle;resizable=0;points=[];autosize=1;strokeColor=none;fillColor=none;strokeWidth=2;" parent="1" vertex="1">
          <mxGeometry x="2375" y="3747" width="50" height="30" as="geometry" />
        </mxCell>
        <mxCell id="hYAcStnYISpaymhXTc3v-117" style="edgeStyle=orthogonalEdgeStyle;rounded=0;orthogonalLoop=1;jettySize=auto;html=1;exitX=0.5;exitY=1;exitDx=0;exitDy=0;entryX=0.5;entryY=0;entryDx=0;entryDy=0;strokeWidth=2;" parent="1" source="hYAcStnYISpaymhXTc3v-118" target="hYAcStnYISpaymhXTc3v-120" edge="1">
          <mxGeometry relative="1" as="geometry" />
        </mxCell>
        <mxCell id="hYAcStnYISpaymhXTc3v-118" value="DISPLAY:&amp;nbsp;&lt;div&gt;TEACHER SUCCESSFULY INSERTED IN DB&lt;/div&gt;" style="shape=parallelogram;perimeter=parallelogramPerimeter;whiteSpace=wrap;html=1;fixedSize=1;strokeWidth=2;" parent="1" vertex="1">
          <mxGeometry x="2422.5" y="3939" width="145" height="66" as="geometry" />
        </mxCell>
        <mxCell id="hYAcStnYISpaymhXTc3v-119" style="edgeStyle=orthogonalEdgeStyle;rounded=0;orthogonalLoop=1;jettySize=auto;html=1;exitX=0;exitY=0.5;exitDx=0;exitDy=0;entryX=0;entryY=0.5;entryDx=0;entryDy=0;strokeWidth=2;" parent="1" source="hYAcStnYISpaymhXTc3v-120" target="hYAcStnYISpaymhXTc3v-77" edge="1">
          <mxGeometry relative="1" as="geometry">
            <Array as="points">
              <mxPoint x="2340" y="4144" />
              <mxPoint x="2340" y="3551" />
            </Array>
          </mxGeometry>
        </mxCell>
        <mxCell id="hYAcStnYISpaymhXTc3v-120" value="&lt;span style=&quot;font-size: 16px;&quot;&gt;ADD&amp;nbsp;&lt;/span&gt;&lt;div&gt;&lt;span style=&quot;font-size: 16px;&quot;&gt;ANOTHER&lt;/span&gt;&lt;div&gt;&lt;span style=&quot;font-size: 16px;&quot;&gt;TEACHER&lt;/span&gt;&lt;/div&gt;&lt;/div&gt;" style="rhombus;whiteSpace=wrap;html=1;strokeWidth=2;" parent="1" vertex="1">
          <mxGeometry x="2410" y="4064" width="170" height="160" as="geometry" />
        </mxCell>
        <mxCell id="hYAcStnYISpaymhXTc3v-121" value="NO" style="text;html=1;align=center;verticalAlign=middle;resizable=0;points=[];autosize=1;strokeColor=none;fillColor=none;strokeWidth=2;" parent="1" vertex="1">
          <mxGeometry x="2520" y="4219" width="40" height="30" as="geometry" />
        </mxCell>
        <mxCell id="hYAcStnYISpaymhXTc3v-122" value="YES" style="text;html=1;align=center;verticalAlign=middle;resizable=0;points=[];autosize=1;strokeColor=none;fillColor=none;strokeWidth=2;" parent="1" vertex="1">
          <mxGeometry x="2360" y="4109" width="50" height="30" as="geometry" />
        </mxCell>
        <mxCell id="hYAcStnYISpaymhXTc3v-123" style="edgeStyle=orthogonalEdgeStyle;rounded=0;orthogonalLoop=1;jettySize=auto;html=1;exitX=0.5;exitY=1;exitDx=0;exitDy=0;entryX=0;entryY=0.5;entryDx=0;entryDy=0;entryPerimeter=0;strokeWidth=2;" parent="1" source="hYAcStnYISpaymhXTc3v-120" target="hYAcStnYISpaymhXTc3v-104" edge="1">
          <mxGeometry relative="1" as="geometry" />
        </mxCell>
        <mxCell id="hYAcStnYISpaymhXTc3v-124" style="edgeStyle=orthogonalEdgeStyle;rounded=0;orthogonalLoop=1;jettySize=auto;html=1;entryX=0;entryY=0.85;entryDx=0;entryDy=0;entryPerimeter=0;strokeWidth=2;" parent="1" source="hYAcStnYISpaymhXTc3v-118" target="hYAcStnYISpaymhXTc3v-87" edge="1">
          <mxGeometry relative="1" as="geometry" />
        </mxCell>
        <mxCell id="hYAcStnYISpaymhXTc3v-125" value="B" style="verticalLabelPosition=bottom;verticalAlign=top;html=1;shape=offPageConnector;rounded=0;size=0.6758086419753151;strokeWidth=2;" parent="1" vertex="1">
          <mxGeometry x="2695.000198991306" y="3289.9985185185187" width="60" height="60" as="geometry" />
        </mxCell>
        <mxCell id="hYAcStnYISpaymhXTc3v-126" style="edgeStyle=orthogonalEdgeStyle;rounded=0;orthogonalLoop=1;jettySize=auto;html=1;entryX=1;entryY=0.5;entryDx=0;entryDy=0;entryPerimeter=0;strokeWidth=2;" parent="1" source="hYAcStnYISpaymhXTc3v-106" target="hYAcStnYISpaymhXTc3v-104" edge="1">
          <mxGeometry relative="1" as="geometry">
            <Array as="points">
              <mxPoint x="3015" y="4699" />
            </Array>
          </mxGeometry>
        </mxCell>
        <mxCell id="hYAcStnYISpaymhXTc3v-151" value="" style="edgeStyle=orthogonalEdgeStyle;rounded=0;orthogonalLoop=1;jettySize=auto;html=1;exitX=1.031;exitY=0.348;exitDx=0;exitDy=0;exitPerimeter=0;strokeWidth=2;entryX=0.52;entryY=0.098;entryDx=0;entryDy=0;entryPerimeter=0;" parent="1" source="hYAcStnYISpaymhXTc3v-182" target="hYAcStnYISpaymhXTc3v-153" edge="1">
          <mxGeometry relative="1" as="geometry">
            <mxPoint x="1799.4601989913072" y="1828.0448148148153" as="sourcePoint" />
            <Array as="points">
              <mxPoint x="1786" y="1769" />
              <mxPoint x="1800" y="1769" />
            </Array>
            <mxPoint x="1799.5109090909082" y="1874" as="targetPoint" />
          </mxGeometry>
        </mxCell>
        <mxCell id="hYAcStnYISpaymhXTc3v-154" value="" style="edgeStyle=orthogonalEdgeStyle;rounded=0;orthogonalLoop=1;jettySize=auto;html=1;strokeWidth=2;" parent="1" source="hYAcStnYISpaymhXTc3v-155" target="hYAcStnYISpaymhXTc3v-159" edge="1">
          <mxGeometry relative="1" as="geometry" />
        </mxCell>
        <mxCell id="hYAcStnYISpaymhXTc3v-155" value="&lt;font style=&quot;font-size: 18px;&quot;&gt;ADD SECTION&lt;/font&gt;" style="rounded=1;whiteSpace=wrap;html=1;absoluteArcSize=1;arcSize=14;strokeWidth=2;" parent="1" vertex="1">
          <mxGeometry x="1711.52" y="2051.6" width="170" height="65" as="geometry" />
        </mxCell>
        <mxCell id="hYAcStnYISpaymhXTc3v-156" value="" style="edgeStyle=orthogonalEdgeStyle;rounded=0;orthogonalLoop=1;jettySize=auto;html=1;strokeWidth=2;" parent="1" source="hYAcStnYISpaymhXTc3v-157" target="hYAcStnYISpaymhXTc3v-161" edge="1">
          <mxGeometry relative="1" as="geometry" />
        </mxCell>
        <mxCell id="hYAcStnYISpaymhXTc3v-157" value="&lt;font style=&quot;font-size: 21px;&quot;&gt;ADD STUDENT&lt;/font&gt;" style="rounded=1;whiteSpace=wrap;html=1;absoluteArcSize=1;arcSize=14;strokeWidth=2;" parent="1" vertex="1">
          <mxGeometry x="2059.52" y="2022.0000000000002" width="190" height="70" as="geometry" />
        </mxCell>
        <mxCell id="tZz2QlTOQrkxZTwnuBbI-5" value="" style="edgeStyle=orthogonalEdgeStyle;rounded=0;orthogonalLoop=1;jettySize=auto;html=1;" edge="1" parent="1" source="hYAcStnYISpaymhXTc3v-159" target="tZz2QlTOQrkxZTwnuBbI-4">
          <mxGeometry relative="1" as="geometry" />
        </mxCell>
        <mxCell id="hYAcStnYISpaymhXTc3v-159" value="&lt;font style=&quot;font-size: 18px;&quot;&gt;ENTER SECTION&lt;/font&gt;" style="shape=parallelogram;perimeter=parallelogramPerimeter;whiteSpace=wrap;html=1;fixedSize=1;rounded=1;arcSize=14;strokeWidth=2;" parent="1" vertex="1">
          <mxGeometry x="1691.52" y="2147.6" width="210" height="70" as="geometry" />
        </mxCell>
        <mxCell id="hYAcStnYISpaymhXTc3v-160" value="" style="edgeStyle=orthogonalEdgeStyle;rounded=0;orthogonalLoop=1;jettySize=auto;html=1;strokeWidth=2;" parent="1" source="hYAcStnYISpaymhXTc3v-161" target="hYAcStnYISpaymhXTc3v-163" edge="1">
          <mxGeometry relative="1" as="geometry" />
        </mxCell>
        <mxCell id="hYAcStnYISpaymhXTc3v-161" value="&lt;font style=&quot;font-size: 18px;&quot;&gt;ENTER STUDENT INFORMATION&lt;/font&gt;" style="shape=parallelogram;perimeter=parallelogramPerimeter;whiteSpace=wrap;html=1;fixedSize=1;rounded=1;arcSize=14;strokeWidth=2;" parent="1" vertex="1">
          <mxGeometry x="2049.52" y="2127" width="210" height="80" as="geometry" />
        </mxCell>
        <mxCell id="hYAcStnYISpaymhXTc3v-162" value="" style="edgeStyle=orthogonalEdgeStyle;rounded=0;orthogonalLoop=1;jettySize=auto;html=1;strokeWidth=2;" parent="1" source="hYAcStnYISpaymhXTc3v-163" target="hYAcStnYISpaymhXTc3v-170" edge="1">
          <mxGeometry relative="1" as="geometry" />
        </mxCell>
        <mxCell id="hYAcStnYISpaymhXTc3v-163" value="&lt;font style=&quot;font-size: 19px;&quot;&gt;VALIDATE STUDENT&lt;/font&gt;" style="rounded=1;whiteSpace=wrap;html=1;absoluteArcSize=1;arcSize=14;strokeWidth=2;" parent="1" vertex="1">
          <mxGeometry x="2069.52" y="2242" width="170" height="80" as="geometry" />
        </mxCell>
        <mxCell id="hYAcStnYISpaymhXTc3v-164" value="" style="edgeStyle=orthogonalEdgeStyle;rounded=0;orthogonalLoop=1;jettySize=auto;html=1;strokeWidth=2;" parent="1" source="hYAcStnYISpaymhXTc3v-165" edge="1">
          <mxGeometry relative="1" as="geometry">
            <mxPoint x="2069.52" y="2282" as="targetPoint" />
          </mxGeometry>
        </mxCell>
        <mxCell id="hYAcStnYISpaymhXTc3v-165" value="STUDENT DATABASE" style="strokeWidth=2;html=1;shape=mxgraph.flowchart.database;whiteSpace=wrap;" parent="1" vertex="1">
          <mxGeometry x="1949.52" y="2227" width="80" height="110" as="geometry" />
        </mxCell>
        <mxCell id="hYAcStnYISpaymhXTc3v-166" value="" style="edgeStyle=orthogonalEdgeStyle;rounded=0;orthogonalLoop=1;jettySize=auto;html=1;strokeWidth=2;" parent="1" source="hYAcStnYISpaymhXTc3v-170" target="hYAcStnYISpaymhXTc3v-173" edge="1">
          <mxGeometry relative="1" as="geometry" />
        </mxCell>
        <mxCell id="hYAcStnYISpaymhXTc3v-167" value="" style="edgeStyle=orthogonalEdgeStyle;rounded=0;orthogonalLoop=1;jettySize=auto;html=1;strokeWidth=2;" parent="1" source="hYAcStnYISpaymhXTc3v-170" target="hYAcStnYISpaymhXTc3v-175" edge="1">
          <mxGeometry relative="1" as="geometry">
            <Array as="points">
              <mxPoint x="2155" y="2553" />
            </Array>
          </mxGeometry>
        </mxCell>
        <mxCell id="hYAcStnYISpaymhXTc3v-168" style="edgeStyle=orthogonalEdgeStyle;rounded=0;orthogonalLoop=1;jettySize=auto;html=1;exitX=0.5;exitY=1;exitDx=0;exitDy=0;strokeWidth=2;" parent="1" source="hYAcStnYISpaymhXTc3v-170" target="hYAcStnYISpaymhXTc3v-165" edge="1">
          <mxGeometry relative="1" as="geometry">
            <Array as="points">
              <mxPoint x="2155" y="2533" />
              <mxPoint x="1990" y="2533" />
            </Array>
          </mxGeometry>
        </mxCell>
        <mxCell id="hYAcStnYISpaymhXTc3v-169" style="edgeStyle=orthogonalEdgeStyle;rounded=0;orthogonalLoop=1;jettySize=auto;html=1;entryX=0.5;entryY=0;entryDx=0;entryDy=0;strokeWidth=2;" parent="1" source="hYAcStnYISpaymhXTc3v-170" target="hYAcStnYISpaymhXTc3v-178" edge="1">
          <mxGeometry relative="1" as="geometry" />
        </mxCell>
        <mxCell id="hYAcStnYISpaymhXTc3v-170" value="&lt;span style=&quot;font-size: 16px;&quot;&gt;IS THE&lt;/span&gt;&lt;div&gt;&lt;span style=&quot;font-size: 16px;&quot;&gt;&amp;nbsp;STUDENT&amp;nbsp;&lt;/span&gt;&lt;/div&gt;&lt;div&gt;&lt;span style=&quot;font-size: 16px;&quot;&gt;ALREDY EXIST&amp;nbsp;&lt;/span&gt;&lt;div&gt;&lt;span style=&quot;font-size: 16px;&quot;&gt;IN DB&lt;/span&gt;&lt;/div&gt;&lt;/div&gt;" style="rhombus;whiteSpace=wrap;html=1;strokeWidth=2;" parent="1" vertex="1">
          <mxGeometry x="2069.52" y="2352" width="170" height="160" as="geometry" />
        </mxCell>
        <mxCell id="hYAcStnYISpaymhXTc3v-171" value="YES" style="text;html=1;align=center;verticalAlign=middle;resizable=0;points=[];autosize=1;strokeColor=none;fillColor=none;strokeWidth=2;" parent="1" vertex="1">
          <mxGeometry x="2249.52" y="2441" width="50" height="30" as="geometry" />
        </mxCell>
        <mxCell id="hYAcStnYISpaymhXTc3v-187" style="edgeStyle=orthogonalEdgeStyle;rounded=0;orthogonalLoop=1;jettySize=auto;html=1;entryX=1;entryY=0.5;entryDx=0;entryDy=0;" parent="1" source="hYAcStnYISpaymhXTc3v-173" target="hYAcStnYISpaymhXTc3v-161" edge="1">
          <mxGeometry relative="1" as="geometry">
            <mxPoint x="2419.52" y="2173" as="targetPoint" />
            <Array as="points">
              <mxPoint x="2430.0000000000005" y="2167" />
            </Array>
          </mxGeometry>
        </mxCell>
        <mxCell id="hYAcStnYISpaymhXTc3v-173" value="&lt;font style=&quot;font-size: 18px;&quot;&gt;DISPLAY :&lt;/font&gt;&lt;div&gt;&lt;font size=&quot;3&quot;&gt;STUDENT ALREDY EXIST&lt;/font&gt;&lt;/div&gt;" style="shape=parallelogram;perimeter=parallelogramPerimeter;whiteSpace=wrap;html=1;fixedSize=1;strokeWidth=2;" parent="1" vertex="1">
          <mxGeometry x="2291.0400000000004" y="2393" width="240.96" height="78" as="geometry" />
        </mxCell>
        <mxCell id="hYAcStnYISpaymhXTc3v-174" value="NO" style="text;html=1;align=center;verticalAlign=middle;resizable=0;points=[];autosize=1;strokeColor=none;fillColor=none;strokeWidth=2;" parent="1" vertex="1">
          <mxGeometry x="2169.52" y="2496.3500000000004" width="40" height="30" as="geometry" />
        </mxCell>
        <mxCell id="hYAcStnYISpaymhXTc3v-175" value="DISPLAY:&amp;nbsp;&lt;div&gt;STUDENT DATA SUCCESSFULLY&amp;nbsp;&lt;div&gt;SUBMITTED TO DB&lt;/div&gt;&lt;/div&gt;" style="shape=parallelogram;perimeter=parallelogramPerimeter;whiteSpace=wrap;html=1;fixedSize=1;strokeWidth=2;" parent="1" vertex="1">
          <mxGeometry x="2281.52" y="2512" width="240.96" height="78" as="geometry" />
        </mxCell>
        <mxCell id="hYAcStnYISpaymhXTc3v-176" value="&lt;span style=&quot;font-size: 24px;&quot;&gt;END&lt;/span&gt;" style="strokeWidth=2;html=1;shape=mxgraph.flowchart.start_2;whiteSpace=wrap;" parent="1" vertex="1">
          <mxGeometry x="1694.5" y="3027" width="120" height="80" as="geometry" />
        </mxCell>
        <mxCell id="hYAcStnYISpaymhXTc3v-177" value="" style="edgeStyle=orthogonalEdgeStyle;rounded=0;orthogonalLoop=1;jettySize=auto;html=1;strokeWidth=2;" parent="1" source="hYAcStnYISpaymhXTc3v-178" target="hYAcStnYISpaymhXTc3v-179" edge="1">
          <mxGeometry relative="1" as="geometry" />
        </mxCell>
        <mxCell id="hYAcStnYISpaymhXTc3v-178" value="&lt;span style=&quot;font-size: 16px;&quot;&gt;ADD&amp;nbsp;&lt;/span&gt;&lt;div&gt;&lt;span style=&quot;font-size: 16px;&quot;&gt;ANOTHER&amp;nbsp;&lt;/span&gt;&lt;/div&gt;&lt;div&gt;&lt;span style=&quot;font-size: 16px;&quot;&gt;STUDENT&lt;/span&gt;&lt;/div&gt;" style="rhombus;whiteSpace=wrap;html=1;strokeWidth=2;" parent="1" vertex="1">
          <mxGeometry x="2069.52" y="2582" width="170" height="160" as="geometry" />
        </mxCell>
        <mxCell id="hYAcStnYISpaymhXTc3v-179" value="&lt;font style=&quot;font-size: 22px;&quot;&gt;C&lt;/font&gt;" style="ellipse;whiteSpace=wrap;html=1;strokeWidth=2;" parent="1" vertex="1">
          <mxGeometry x="2369.52" y="2632" width="60" height="60" as="geometry" />
        </mxCell>
        <mxCell id="hYAcStnYISpaymhXTc3v-180" value="" style="edgeStyle=orthogonalEdgeStyle;rounded=0;orthogonalLoop=1;jettySize=auto;html=1;strokeWidth=2;" parent="1" source="hYAcStnYISpaymhXTc3v-181" target="hYAcStnYISpaymhXTc3v-157" edge="1">
          <mxGeometry relative="1" as="geometry" />
        </mxCell>
        <mxCell id="hYAcStnYISpaymhXTc3v-181" value="&lt;font style=&quot;font-size: 22px;&quot;&gt;C&lt;/font&gt;" style="ellipse;whiteSpace=wrap;html=1;strokeWidth=2;" parent="1" vertex="1">
          <mxGeometry x="1954.52" y="2086.28" width="60" height="60" as="geometry" />
        </mxCell>
        <mxCell id="hYAcStnYISpaymhXTc3v-182" value="B" style="verticalLabelPosition=bottom;verticalAlign=top;html=1;shape=offPageConnector;rounded=0;size=0.6758086419753151;strokeWidth=2;" parent="1" vertex="1">
          <mxGeometry x="1724.4601989913062" y="1749.9985185185187" width="60" height="60" as="geometry" />
        </mxCell>
        <mxCell id="hYAcStnYISpaymhXTc3v-183" style="edgeStyle=orthogonalEdgeStyle;rounded=0;orthogonalLoop=1;jettySize=auto;html=1;entryX=1;entryY=0.5;entryDx=0;entryDy=0;entryPerimeter=0;strokeWidth=2;" parent="1" source="hYAcStnYISpaymhXTc3v-178" target="hYAcStnYISpaymhXTc3v-176" edge="1">
          <mxGeometry relative="1" as="geometry">
            <Array as="points">
              <mxPoint x="2160" y="3067" />
            </Array>
            <mxPoint x="1974.7400000000002" y="2759" as="targetPoint" />
          </mxGeometry>
        </mxCell>
        <mxCell id="hYAcStnYISpaymhXTc3v-184" value="&lt;font style=&quot;font-size: 24px;&quot;&gt;ADD STUDENT AND ADD SECTION&lt;/font&gt;&lt;div&gt;&lt;br&gt;&lt;/div&gt;" style="text;html=1;align=center;verticalAlign=middle;resizable=0;points=[];autosize=1;strokeColor=none;fillColor=none;" parent="1" vertex="1">
          <mxGeometry x="1223.02" y="1720" width="420" height="60" as="geometry" />
        </mxCell>
        <mxCell id="hYAcStnYISpaymhXTc3v-186" style="edgeStyle=orthogonalEdgeStyle;rounded=0;orthogonalLoop=1;jettySize=auto;html=1;exitX=0.5;exitY=0;exitDx=0;exitDy=0;entryX=0.996;entryY=0.513;entryDx=0;entryDy=0;entryPerimeter=0;" parent="1" edge="1">
          <mxGeometry relative="1" as="geometry">
            <mxPoint x="3580.84" y="4734.96" as="sourcePoint" />
            <mxPoint x="3420" y="4510" as="targetPoint" />
          </mxGeometry>
        </mxCell>
        <mxCell id="hYAcStnYISpaymhXTc3v-188" value="" style="edgeStyle=orthogonalEdgeStyle;rounded=0;orthogonalLoop=1;jettySize=auto;html=1;strokeWidth=2;" parent="1" source="hYAcStnYISpaymhXTc3v-189" target="hYAcStnYISpaymhXTc3v-190" edge="1">
          <mxGeometry relative="1" as="geometry" />
        </mxCell>
        <mxCell id="hYAcStnYISpaymhXTc3v-189" value="&lt;font style=&quot;font-size: 18px;&quot;&gt;TOP UP&lt;/font&gt;" style="rounded=1;whiteSpace=wrap;html=1;absoluteArcSize=1;arcSize=14;strokeWidth=2;" parent="1" vertex="1">
          <mxGeometry x="1466.94" y="2054" width="170" height="65" as="geometry" />
        </mxCell>
        <mxCell id="hYAcStnYISpaymhXTc3v-193" style="edgeStyle=orthogonalEdgeStyle;rounded=0;orthogonalLoop=1;jettySize=auto;html=1;exitX=0.5;exitY=1;exitDx=0;exitDy=0;entryX=0.5;entryY=0;entryDx=0;entryDy=0;" parent="1" source="hYAcStnYISpaymhXTc3v-190" edge="1">
          <mxGeometry relative="1" as="geometry">
            <mxPoint x="1551.94" y="2279" as="targetPoint" />
          </mxGeometry>
        </mxCell>
        <mxCell id="hYAcStnYISpaymhXTc3v-190" value="&lt;font style=&quot;font-size: 18px;&quot;&gt;ENTER AMOUNT&lt;/font&gt;" style="shape=parallelogram;perimeter=parallelogramPerimeter;whiteSpace=wrap;html=1;fixedSize=1;rounded=1;arcSize=14;strokeWidth=2;" parent="1" vertex="1">
          <mxGeometry x="1446.94" y="2161" width="210" height="70" as="geometry" />
        </mxCell>
        <mxCell id="hYAcStnYISpaymhXTc3v-196" value="" style="edgeStyle=orthogonalEdgeStyle;rounded=0;orthogonalLoop=1;jettySize=auto;html=1;" parent="1" source="hYAcStnYISpaymhXTc3v-194" target="hYAcStnYISpaymhXTc3v-195" edge="1">
          <mxGeometry relative="1" as="geometry" />
        </mxCell>
        <mxCell id="hYAcStnYISpaymhXTc3v-194" value="&lt;font style=&quot;font-size: 21px;&quot;&gt;ADD NFC ID&lt;/font&gt;" style="rounded=1;whiteSpace=wrap;html=1;absoluteArcSize=1;arcSize=14;strokeWidth=2;" parent="1" vertex="1">
          <mxGeometry x="1456.94" y="2279" width="190" height="70" as="geometry" />
        </mxCell>
        <mxCell id="hYAcStnYISpaymhXTc3v-206" value="" style="edgeStyle=orthogonalEdgeStyle;rounded=0;orthogonalLoop=1;jettySize=auto;html=1;" parent="1" source="hYAcStnYISpaymhXTc3v-195" target="hYAcStnYISpaymhXTc3v-200" edge="1">
          <mxGeometry relative="1" as="geometry" />
        </mxCell>
        <mxCell id="hYAcStnYISpaymhXTc3v-195" value="&lt;font style=&quot;font-size: 18px;&quot;&gt;ENTER NFC&lt;/font&gt;" style="shape=parallelogram;perimeter=parallelogramPerimeter;whiteSpace=wrap;html=1;fixedSize=1;rounded=1;arcSize=14;strokeWidth=2;" parent="1" vertex="1">
          <mxGeometry x="1446.94" y="2390" width="210" height="80" as="geometry" />
        </mxCell>
        <mxCell id="hYAcStnYISpaymhXTc3v-211" style="edgeStyle=orthogonalEdgeStyle;rounded=0;orthogonalLoop=1;jettySize=auto;html=1;exitX=0.5;exitY=1;exitDx=0;exitDy=0;entryX=0.5;entryY=0;entryDx=0;entryDy=0;" parent="1" source="hYAcStnYISpaymhXTc3v-197" target="hYAcStnYISpaymhXTc3v-209" edge="1">
          <mxGeometry relative="1" as="geometry" />
        </mxCell>
        <mxCell id="hYAcStnYISpaymhXTc3v-197" value="&lt;span style=&quot;font-size: 18px;&quot;&gt;DISPLAY CONFIRMATION&lt;/span&gt;" style="shape=parallelogram;perimeter=parallelogramPerimeter;whiteSpace=wrap;html=1;fixedSize=1;rounded=1;arcSize=14;strokeWidth=2;" parent="1" vertex="1">
          <mxGeometry x="1446.94" y="2708" width="210" height="80" as="geometry" />
        </mxCell>
        <mxCell id="hYAcStnYISpaymhXTc3v-203" value="" style="edgeStyle=orthogonalEdgeStyle;rounded=0;orthogonalLoop=1;jettySize=auto;html=1;" parent="1" source="hYAcStnYISpaymhXTc3v-200" target="hYAcStnYISpaymhXTc3v-197" edge="1">
          <mxGeometry relative="1" as="geometry" />
        </mxCell>
        <mxCell id="hYAcStnYISpaymhXTc3v-204" style="edgeStyle=orthogonalEdgeStyle;rounded=0;orthogonalLoop=1;jettySize=auto;html=1;exitX=0;exitY=0.5;exitDx=0;exitDy=0;entryX=1;entryY=0.5;entryDx=0;entryDy=0;" parent="1" source="hYAcStnYISpaymhXTc3v-200" target="hYAcStnYISpaymhXTc3v-202" edge="1">
          <mxGeometry relative="1" as="geometry" />
        </mxCell>
        <mxCell id="hYAcStnYISpaymhXTc3v-200" value="&lt;span style=&quot;font-size: 16px;&quot;&gt;IF NFC_ID IS IN DATABASE&lt;/span&gt;" style="rhombus;whiteSpace=wrap;html=1;strokeWidth=2;" parent="1" vertex="1">
          <mxGeometry x="1466.94" y="2510" width="170" height="160" as="geometry" />
        </mxCell>
        <mxCell id="hYAcStnYISpaymhXTc3v-205" style="edgeStyle=orthogonalEdgeStyle;rounded=0;orthogonalLoop=1;jettySize=auto;html=1;" parent="1" source="hYAcStnYISpaymhXTc3v-202" edge="1">
          <mxGeometry relative="1" as="geometry">
            <mxPoint x="1556.94" y="2370" as="targetPoint" />
            <Array as="points">
              <mxPoint x="1316.94" y="2370" />
              <mxPoint x="1456.94" y="2370" />
            </Array>
          </mxGeometry>
        </mxCell>
        <mxCell id="hYAcStnYISpaymhXTc3v-202" value="&lt;span style=&quot;font-size: 18px;&quot;&gt;DISPLAY:&amp;nbsp;&lt;br&gt;NFC NOT EXIST&lt;/span&gt;" style="shape=parallelogram;perimeter=parallelogramPerimeter;whiteSpace=wrap;html=1;fixedSize=1;rounded=1;arcSize=14;strokeWidth=2;" parent="1" vertex="1">
          <mxGeometry x="1215.98" y="2550" width="210" height="80" as="geometry" />
        </mxCell>
        <mxCell id="hYAcStnYISpaymhXTc3v-207" value="YES" style="text;html=1;align=center;verticalAlign=middle;resizable=0;points=[];autosize=1;strokeColor=none;fillColor=none;" parent="1" vertex="1">
          <mxGeometry x="1561.94" y="2678" width="50" height="30" as="geometry" />
        </mxCell>
        <mxCell id="hYAcStnYISpaymhXTc3v-208" value="NO" style="text;html=1;align=center;verticalAlign=middle;resizable=0;points=[];autosize=1;strokeColor=none;fillColor=none;" parent="1" vertex="1">
          <mxGeometry x="1436.94" y="2538" width="40" height="30" as="geometry" />
        </mxCell>
        <mxCell id="hYAcStnYISpaymhXTc3v-209" value="&lt;span style=&quot;font-size: 18px;&quot;&gt;TOP UP SUCCESSFULLY&lt;/span&gt;" style="shape=parallelogram;perimeter=parallelogramPerimeter;whiteSpace=wrap;html=1;fixedSize=1;rounded=1;arcSize=14;strokeWidth=2;" parent="1" vertex="1">
          <mxGeometry x="1446.94" y="2820" width="210" height="80" as="geometry" />
        </mxCell>
        <mxCell id="hYAcStnYISpaymhXTc3v-210" style="edgeStyle=orthogonalEdgeStyle;rounded=0;orthogonalLoop=1;jettySize=auto;html=1;" parent="1" edge="1">
          <mxGeometry relative="1" as="geometry">
            <mxPoint x="1545.98" y="2900" as="sourcePoint" />
            <mxPoint x="1690" y="3070" as="targetPoint" />
            <Array as="points">
              <mxPoint x="1555.98" y="2900" />
              <mxPoint x="1555.98" y="3067" />
            </Array>
          </mxGeometry>
        </mxCell>
        <mxCell id="hYAcStnYISpaymhXTc3v-212" value="YES" style="text;html=1;align=center;verticalAlign=middle;resizable=0;points=[];autosize=1;strokeColor=none;fillColor=none;strokeWidth=2;" parent="1" vertex="1">
          <mxGeometry x="2249.0400000000004" y="2692" width="50" height="30" as="geometry" />
        </mxCell>
        <mxCell id="hYAcStnYISpaymhXTc3v-213" value="NO" style="text;html=1;align=center;verticalAlign=middle;resizable=0;points=[];autosize=1;strokeColor=none;fillColor=none;strokeWidth=2;" parent="1" vertex="1">
          <mxGeometry x="2169.04" y="2747.3500000000004" width="40" height="30" as="geometry" />
        </mxCell>
        <mxCell id="tZz2QlTOQrkxZTwnuBbI-4" value="&lt;span style=&quot;font-size: 18px;&quot;&gt;DISPLAY UPDATED&lt;br&gt;LIST OF SECTIONS&lt;/span&gt;" style="shape=parallelogram;perimeter=parallelogramPerimeter;whiteSpace=wrap;html=1;fixedSize=1;rounded=1;arcSize=14;strokeWidth=2;" vertex="1" parent="1">
          <mxGeometry x="1691.52" y="2247.6" width="210" height="80" as="geometry" />
        </mxCell>
        <mxCell id="tZz2QlTOQrkxZTwnuBbI-7" style="edgeStyle=orthogonalEdgeStyle;rounded=0;orthogonalLoop=1;jettySize=auto;html=1;" edge="1" parent="1" source="hYAcStnYISpaymhXTc3v-153" target="hYAcStnYISpaymhXTc3v-189">
          <mxGeometry relative="1" as="geometry" />
        </mxCell>
        <mxCell id="tZz2QlTOQrkxZTwnuBbI-8" style="edgeStyle=orthogonalEdgeStyle;rounded=0;orthogonalLoop=1;jettySize=auto;html=1;exitX=1;exitY=0.5;exitDx=0;exitDy=0;entryX=0.5;entryY=0;entryDx=0;entryDy=0;" edge="1" parent="1" source="hYAcStnYISpaymhXTc3v-153" target="hYAcStnYISpaymhXTc3v-157">
          <mxGeometry relative="1" as="geometry" />
        </mxCell>
        <mxCell id="tZz2QlTOQrkxZTwnuBbI-9" value="" style="edgeStyle=orthogonalEdgeStyle;rounded=0;orthogonalLoop=1;jettySize=auto;html=1;" edge="1" parent="1" source="hYAcStnYISpaymhXTc3v-153" target="hYAcStnYISpaymhXTc3v-155">
          <mxGeometry relative="1" as="geometry" />
        </mxCell>
        <mxCell id="hYAcStnYISpaymhXTc3v-153" value="&lt;span style=&quot;font-size: 18px;&quot;&gt;DECISION&lt;/span&gt;" style="rounded=1;whiteSpace=wrap;html=1;absoluteArcSize=1;arcSize=14;strokeWidth=2;" parent="1" vertex="1">
          <mxGeometry x="1717" y="1880" width="159.04" height="80" as="geometry" />
        </mxCell>
        <mxCell id="tZz2QlTOQrkxZTwnuBbI-11" style="edgeStyle=orthogonalEdgeStyle;rounded=0;orthogonalLoop=1;jettySize=auto;html=1;entryX=0.5;entryY=0;entryDx=0;entryDy=0;entryPerimeter=0;" edge="1" parent="1" source="tZz2QlTOQrkxZTwnuBbI-4" target="hYAcStnYISpaymhXTc3v-176">
          <mxGeometry relative="1" as="geometry" />
        </mxCell>
      </root>
    </mxGraphModel>
  </diagram>
  <diagram id="2oZ-UwRcQ2pKKLNbK4MY" name="CLIENT SIDE (STUDENT)">
    <mxGraphModel dx="1706" dy="783" grid="1" gridSize="10" guides="1" tooltips="1" connect="1" arrows="1" fold="1" page="1" pageScale="1" pageWidth="1200" pageHeight="1600" math="0" shadow="0">
      <root>
        <mxCell id="0" />
        <mxCell id="1" parent="0" />
        <mxCell id="Xcul5pEpK2J-ERBk9VsB-1" value="&lt;font style=&quot;font-size: 50px;&quot;&gt;Client Side&lt;/font&gt;" style="text;strokeColor=none;align=center;fillColor=none;html=1;verticalAlign=middle;whiteSpace=wrap;rounded=0;" parent="1" vertex="1">
          <mxGeometry x="40" y="30" width="290" height="90" as="geometry" />
        </mxCell>
        <mxCell id="YfGVmgGXoV5uhjW6KwVq-3" style="edgeStyle=orthogonalEdgeStyle;rounded=0;orthogonalLoop=1;jettySize=auto;html=1;exitX=0.5;exitY=1;exitDx=0;exitDy=0;entryX=0.5;entryY=0;entryDx=0;entryDy=0;" parent="1" source="xzkJdYb1D7YxMMa5omPn-1" target="vKM_tfm6aFb2aHGi0HVL-1" edge="1">
          <mxGeometry relative="1" as="geometry" />
        </mxCell>
        <mxCell id="xzkJdYb1D7YxMMa5omPn-1" value="&lt;font style=&quot;font-size: 30px;&quot;&gt;Start&lt;/font&gt;" style="ellipse;whiteSpace=wrap;html=1;strokeWidth=2;" parent="1" vertex="1">
          <mxGeometry x="485.56" y="140" width="124.44" height="64.35" as="geometry" />
        </mxCell>
        <mxCell id="YfGVmgGXoV5uhjW6KwVq-4" style="edgeStyle=orthogonalEdgeStyle;rounded=0;orthogonalLoop=1;jettySize=auto;html=1;exitX=0.5;exitY=1;exitDx=0;exitDy=0;entryX=0.5;entryY=0;entryDx=0;entryDy=0;" parent="1" source="vKM_tfm6aFb2aHGi0HVL-1" target="lR-57q3YGn_0b2zrzu0y-1" edge="1">
          <mxGeometry relative="1" as="geometry" />
        </mxCell>
        <mxCell id="vKM_tfm6aFb2aHGi0HVL-1" value="&lt;font style=&quot;font-size: 19px;&quot;&gt;Student Login&lt;/font&gt;" style="rounded=0;whiteSpace=wrap;html=1;" parent="1" vertex="1">
          <mxGeometry x="463.62000000000006" y="270" width="168.33" height="70" as="geometry" />
        </mxCell>
        <mxCell id="YfGVmgGXoV5uhjW6KwVq-5" style="edgeStyle=orthogonalEdgeStyle;rounded=0;orthogonalLoop=1;jettySize=auto;html=1;exitX=0.5;exitY=1;exitDx=0;exitDy=0;" parent="1" source="lR-57q3YGn_0b2zrzu0y-1" target="jJNg_9r5W7fvDgl9s3mf-1" edge="1">
          <mxGeometry relative="1" as="geometry" />
        </mxCell>
        <mxCell id="lR-57q3YGn_0b2zrzu0y-1" value="ID NUMBER and&amp;nbsp;&lt;div&gt;PASSWORD&lt;/div&gt;" style="shape=parallelogram;perimeter=parallelogramPerimeter;whiteSpace=wrap;html=1;fixedSize=1;" parent="1" vertex="1">
          <mxGeometry x="447.78" y="390" width="200" height="60" as="geometry" />
        </mxCell>
        <mxCell id="YfGVmgGXoV5uhjW6KwVq-6" style="edgeStyle=orthogonalEdgeStyle;rounded=0;orthogonalLoop=1;jettySize=auto;html=1;exitX=0.5;exitY=1;exitDx=0;exitDy=0;entryX=0.5;entryY=0;entryDx=0;entryDy=0;" parent="1" source="jJNg_9r5W7fvDgl9s3mf-1" target="D9rxMsHGJyg-sXC01PhF-2" edge="1">
          <mxGeometry relative="1" as="geometry" />
        </mxCell>
        <mxCell id="jJNg_9r5W7fvDgl9s3mf-1" value="VALIDATE&amp;nbsp;&lt;div&gt;STUDENT&lt;/div&gt;" style="rounded=0;whiteSpace=wrap;html=1;" parent="1" vertex="1">
          <mxGeometry x="472.79" y="500" width="150" height="70" as="geometry" />
        </mxCell>
        <mxCell id="YfGVmgGXoV5uhjW6KwVq-8" style="edgeStyle=orthogonalEdgeStyle;rounded=0;orthogonalLoop=1;jettySize=auto;html=1;exitX=1;exitY=0.5;exitDx=0;exitDy=0;exitPerimeter=0;entryX=0;entryY=0.5;entryDx=0;entryDy=0;" parent="1" source="D9rxMsHGJyg-sXC01PhF-1" target="jJNg_9r5W7fvDgl9s3mf-1" edge="1">
          <mxGeometry relative="1" as="geometry" />
        </mxCell>
        <mxCell id="D9rxMsHGJyg-sXC01PhF-1" value="STUDENT DATABASE" style="shape=cylinder3;whiteSpace=wrap;html=1;boundedLbl=1;backgroundOutline=1;size=15;" parent="1" vertex="1">
          <mxGeometry x="280" y="475" width="90" height="120" as="geometry" />
        </mxCell>
        <mxCell id="YfGVmgGXoV5uhjW6KwVq-7" style="edgeStyle=orthogonalEdgeStyle;rounded=0;orthogonalLoop=1;jettySize=auto;html=1;exitX=0.5;exitY=1;exitDx=0;exitDy=0;entryX=0.5;entryY=0;entryDx=0;entryDy=0;" parent="1" source="D9rxMsHGJyg-sXC01PhF-2" target="YfGVmgGXoV5uhjW6KwVq-1" edge="1">
          <mxGeometry relative="1" as="geometry" />
        </mxCell>
        <mxCell id="R9Go6ipYlWtboZpNIZqi-3" style="edgeStyle=orthogonalEdgeStyle;rounded=0;orthogonalLoop=1;jettySize=auto;html=1;exitX=1;exitY=0.5;exitDx=0;exitDy=0;entryX=1;entryY=0.5;entryDx=0;entryDy=0;" parent="1" source="D9rxMsHGJyg-sXC01PhF-2" target="lR-57q3YGn_0b2zrzu0y-1" edge="1">
          <mxGeometry relative="1" as="geometry">
            <mxPoint x="850" y="580" as="targetPoint" />
            <Array as="points">
              <mxPoint x="820" y="690" />
              <mxPoint x="820" y="420" />
            </Array>
          </mxGeometry>
        </mxCell>
        <mxCell id="D9rxMsHGJyg-sXC01PhF-2" value="VERIFICATION" style="rhombus;whiteSpace=wrap;html=1;" parent="1" vertex="1">
          <mxGeometry x="491.26" y="620" width="113.06" height="140" as="geometry" />
        </mxCell>
        <mxCell id="3aKGQOuAsVW2W9BT7fvl-9" style="edgeStyle=none;curved=1;rounded=0;orthogonalLoop=1;jettySize=auto;html=1;entryX=0.5;entryY=0;entryDx=0;entryDy=0;fontSize=12;startSize=8;endSize=8;" parent="1" source="YfGVmgGXoV5uhjW6KwVq-1" target="adeJi5M41sofItzMRAvQ-1" edge="1">
          <mxGeometry relative="1" as="geometry" />
        </mxCell>
        <mxCell id="YfGVmgGXoV5uhjW6KwVq-1" value="ACCESS GRANTED" style="rounded=0;whiteSpace=wrap;html=1;" parent="1" vertex="1">
          <mxGeometry x="472.79" y="810" width="150" height="70" as="geometry" />
        </mxCell>
        <mxCell id="R9Go6ipYlWtboZpNIZqi-5" value="YES" style="text;align=center;html=1;verticalAlign=middle;whiteSpace=wrap;rounded=0;" parent="1" vertex="1">
          <mxGeometry x="562.79" y="770" width="60" height="30" as="geometry" />
        </mxCell>
        <mxCell id="R9Go6ipYlWtboZpNIZqi-6" value="NO" style="text;strokeColor=none;align=center;fillColor=none;html=1;verticalAlign=middle;whiteSpace=wrap;rounded=0;" parent="1" vertex="1">
          <mxGeometry x="588.3199999999999" y="659" width="60" height="30" as="geometry" />
        </mxCell>
        <mxCell id="b7qrdSK1RfNbMilfA8KB-3" style="edgeStyle=orthogonalEdgeStyle;rounded=0;orthogonalLoop=1;jettySize=auto;html=1;exitX=0;exitY=0.25;exitDx=0;exitDy=0;" edge="1" parent="1" source="adeJi5M41sofItzMRAvQ-1" target="adeJi5M41sofItzMRAvQ-2">
          <mxGeometry relative="1" as="geometry" />
        </mxCell>
        <mxCell id="b7qrdSK1RfNbMilfA8KB-4" style="edgeStyle=orthogonalEdgeStyle;rounded=0;orthogonalLoop=1;jettySize=auto;html=1;exitX=0;exitY=0.75;exitDx=0;exitDy=0;" edge="1" parent="1" source="adeJi5M41sofItzMRAvQ-1" target="adeJi5M41sofItzMRAvQ-3">
          <mxGeometry relative="1" as="geometry" />
        </mxCell>
        <mxCell id="b7qrdSK1RfNbMilfA8KB-5" style="edgeStyle=orthogonalEdgeStyle;rounded=0;orthogonalLoop=1;jettySize=auto;html=1;exitX=1;exitY=0.75;exitDx=0;exitDy=0;entryX=0.5;entryY=0;entryDx=0;entryDy=0;" edge="1" parent="1" source="adeJi5M41sofItzMRAvQ-1" target="adeJi5M41sofItzMRAvQ-4">
          <mxGeometry relative="1" as="geometry" />
        </mxCell>
        <mxCell id="b7qrdSK1RfNbMilfA8KB-6" style="edgeStyle=orthogonalEdgeStyle;rounded=0;orthogonalLoop=1;jettySize=auto;html=1;exitX=1;exitY=0.25;exitDx=0;exitDy=0;entryX=0.5;entryY=0;entryDx=0;entryDy=0;" edge="1" parent="1" source="adeJi5M41sofItzMRAvQ-1" target="adeJi5M41sofItzMRAvQ-5">
          <mxGeometry relative="1" as="geometry" />
        </mxCell>
        <mxCell id="adeJi5M41sofItzMRAvQ-1" value="NAVIGATION" style="rounded=0;whiteSpace=wrap;html=1;" parent="1" vertex="1">
          <mxGeometry x="487.79" y="920" width="120" height="60" as="geometry" />
        </mxCell>
        <mxCell id="b7qrdSK1RfNbMilfA8KB-7" value="" style="edgeStyle=orthogonalEdgeStyle;rounded=0;orthogonalLoop=1;jettySize=auto;html=1;" edge="1" parent="1" source="adeJi5M41sofItzMRAvQ-2" target="adeJi5M41sofItzMRAvQ-6">
          <mxGeometry relative="1" as="geometry" />
        </mxCell>
        <mxCell id="adeJi5M41sofItzMRAvQ-2" value="E-WALLET" style="rounded=0;whiteSpace=wrap;html=1;" parent="1" vertex="1">
          <mxGeometry x="180" y="1050" width="120" height="60" as="geometry" />
        </mxCell>
        <mxCell id="b7qrdSK1RfNbMilfA8KB-8" value="" style="edgeStyle=orthogonalEdgeStyle;rounded=0;orthogonalLoop=1;jettySize=auto;html=1;" edge="1" parent="1" source="adeJi5M41sofItzMRAvQ-3" target="adeJi5M41sofItzMRAvQ-7">
          <mxGeometry relative="1" as="geometry" />
        </mxCell>
        <mxCell id="adeJi5M41sofItzMRAvQ-3" value="DASHBOARD" style="rounded=0;whiteSpace=wrap;html=1;" parent="1" vertex="1">
          <mxGeometry x="352.79" y="1050" width="120" height="60" as="geometry" />
        </mxCell>
        <mxCell id="b7qrdSK1RfNbMilfA8KB-9" value="" style="edgeStyle=orthogonalEdgeStyle;rounded=0;orthogonalLoop=1;jettySize=auto;html=1;" edge="1" parent="1" source="adeJi5M41sofItzMRAvQ-4" target="adeJi5M41sofItzMRAvQ-8">
          <mxGeometry relative="1" as="geometry" />
        </mxCell>
        <mxCell id="adeJi5M41sofItzMRAvQ-4" value="PROFILE" style="rounded=0;whiteSpace=wrap;html=1;" parent="1" vertex="1">
          <mxGeometry x="607.7899999999998" y="1050" width="120" height="60" as="geometry" />
        </mxCell>
        <mxCell id="adeJi5M41sofItzMRAvQ-5" value="SETTINGS" style="rounded=0;whiteSpace=wrap;html=1;" parent="1" vertex="1">
          <mxGeometry x="780" y="1050" width="120" height="60" as="geometry" />
        </mxCell>
        <mxCell id="b7qrdSK1RfNbMilfA8KB-10" style="edgeStyle=orthogonalEdgeStyle;rounded=0;orthogonalLoop=1;jettySize=auto;html=1;entryX=0;entryY=0.5;entryDx=0;entryDy=0;" edge="1" parent="1" source="adeJi5M41sofItzMRAvQ-6" target="3aKGQOuAsVW2W9BT7fvl-10">
          <mxGeometry relative="1" as="geometry">
            <mxPoint x="160" y="1480" as="targetPoint" />
            <Array as="points">
              <mxPoint x="240" y="1475" />
            </Array>
          </mxGeometry>
        </mxCell>
        <mxCell id="adeJi5M41sofItzMRAvQ-6" value="VIEW STUDENT&#39;S TRANSACTION" style="rounded=0;whiteSpace=wrap;html=1;" parent="1" vertex="1">
          <mxGeometry x="180" y="1180" width="120" height="60" as="geometry" />
        </mxCell>
        <mxCell id="b7qrdSK1RfNbMilfA8KB-11" style="edgeStyle=orthogonalEdgeStyle;rounded=0;orthogonalLoop=1;jettySize=auto;html=1;" edge="1" parent="1" source="adeJi5M41sofItzMRAvQ-7" target="3aKGQOuAsVW2W9BT7fvl-10">
          <mxGeometry relative="1" as="geometry">
            <Array as="points">
              <mxPoint x="413" y="1335" />
              <mxPoint x="540" y="1335" />
            </Array>
          </mxGeometry>
        </mxCell>
        <mxCell id="adeJi5M41sofItzMRAvQ-7" value="STUDENT&#39;S LOGIN/LOGOUT RECORD" style="rounded=0;whiteSpace=wrap;html=1;" parent="1" vertex="1">
          <mxGeometry x="352.79" y="1180" width="120" height="60" as="geometry" />
        </mxCell>
        <mxCell id="b7qrdSK1RfNbMilfA8KB-12" style="edgeStyle=orthogonalEdgeStyle;rounded=0;orthogonalLoop=1;jettySize=auto;html=1;" edge="1" parent="1" source="adeJi5M41sofItzMRAvQ-8" target="3aKGQOuAsVW2W9BT7fvl-10">
          <mxGeometry relative="1" as="geometry" />
        </mxCell>
        <mxCell id="adeJi5M41sofItzMRAvQ-8" value="STUDENT&#39;S PROFILE DETAILS" style="rounded=0;whiteSpace=wrap;html=1;" parent="1" vertex="1">
          <mxGeometry x="607.7899999999998" y="1180" width="120" height="60" as="geometry" />
        </mxCell>
        <mxCell id="3aKGQOuAsVW2W9BT7fvl-10" value="&lt;font style=&quot;font-size: 30px;&quot;&gt;END&lt;/font&gt;" style="ellipse;whiteSpace=wrap;html=1;" parent="1" vertex="1">
          <mxGeometry x="430" y="1430" width="270" height="90" as="geometry" />
        </mxCell>
      </root>
    </mxGraphModel>
  </diagram>
</mxfile>
